<svg width="414" height="261" viewBox="0 0 414 261" fill="none" xmlns="http://www.w3.org/2000/svg">
<path d="M27.3107 259.474C14.5184 244.004 6.12969 224.099 2.50004 204.496C-4.7464 165.354 9.18176 122.909 36.0116 93.7693C58.3349 69.5249 91.2399 60.9866 123.172 60.0373C136.971 59.627 150.761 60.5345 164.483 61.9165C173.329 62.8078 182.421 64.4923 191.337 64.2043C199.776 63.9324 205.124 57.196 209.805 50.9648C217.374 40.8899 224.797 30.9615 234.745 23.0489C261.76 1.56061 303.346 -7.80956 335.36 7.65186C350.241 14.8388 361.731 27.4058 367.48 42.9091C374.8 62.6501 372.841 84.5632 367.448 104.513C363.509 119.137 360.531 134.835 365.681 149.578C371.037 164.913 384.442 174.325 394.173 186.633C411.306 208.303 406.634 235.839 398.377 260.286L27.3107 259.475V259.474Z" fill="#E8E8E9"/>
<path d="M80.4164 188.496C80.6948 188.354 80.918 188.242 81.0786 188.162C81.2325 188.294 81.4535 188.484 81.7327 188.721C82.3106 189.212 83.1383 189.91 84.1388 190.734C86.1391 192.382 88.8332 194.541 91.6029 196.579C94.3673 198.613 97.2277 200.542 99.556 201.718C100.715 202.304 101.78 202.723 102.654 202.859C103.513 202.992 104.377 202.873 104.832 202.115L104.833 202.115C105.26 201.404 105.089 200.592 104.686 199.848C104.28 199.096 103.58 198.293 102.715 197.477C100.978 195.84 98.4569 194.046 95.8876 192.39C93.3127 190.731 90.6666 189.195 88.666 188.075C87.6653 187.515 86.8251 187.058 86.2347 186.742C86.1692 186.707 86.1068 186.673 86.0476 186.641C89.4979 184.457 94.0183 183.287 97.8083 182.665C99.8239 182.335 101.616 182.162 102.905 182.072C103.548 182.027 104.066 182.002 104.421 181.989C104.599 181.983 104.736 181.979 104.828 181.977C104.874 181.976 104.909 181.975 104.932 181.975L104.935 181.975C109.493 182.506 112.655 184.352 114.854 186.805C117.067 189.273 118.33 192.386 119.023 195.468C119.717 198.548 119.835 201.57 119.778 203.828C119.749 204.955 119.677 205.888 119.613 206.538C119.58 206.863 119.55 207.116 119.528 207.288C119.516 207.374 119.507 207.439 119.501 207.483L119.494 207.531L119.492 207.542L119.492 207.545L119.492 207.545L119.492 207.545L119.448 207.825L119.666 208.006L119.986 207.622C119.666 208.006 119.666 208.007 119.666 208.007L119.667 208.007L119.668 208.008L119.673 208.013L119.691 208.027C119.707 208.04 119.73 208.059 119.76 208.083C119.82 208.13 119.908 208.2 120.024 208.288C120.256 208.465 120.599 208.718 121.048 209.028C121.947 209.647 123.271 210.493 124.983 211.405C128.406 213.228 133.383 215.32 139.61 216.398L139.631 216.401L139.653 216.403L139.653 216.403L139.655 216.403L139.662 216.404L139.695 216.407C139.724 216.41 139.769 216.414 139.829 216.421C139.948 216.434 140.126 216.455 140.358 216.488C140.821 216.552 141.496 216.661 142.34 216.837C144.029 217.188 146.387 217.807 149.057 218.875C154.299 220.972 160.729 224.795 165.664 231.712L164.447 232.625C164.38 232.56 164.304 232.485 164.217 232.402C163.869 232.066 163.361 231.584 162.72 230.997C161.438 229.823 159.624 228.226 157.494 226.536C153.249 223.169 147.693 219.387 142.574 217.887L142.564 217.884L142.554 217.881L142.494 217.866C142.117 217.772 141.592 217.641 140.954 217.488L140.943 217.485L140.933 217.483C139.411 217.187 138.328 216.934 137.581 216.721L137.565 216.716L137.549 216.713C135.184 216.205 132.405 215.674 129.938 215.38C128.704 215.233 127.538 215.144 126.536 215.148C125.772 215.151 125.072 215.207 124.499 215.349C124.408 215.159 124.28 214.919 124.102 214.647L123.237 215.146C123.317 215.304 123.397 215.462 123.478 215.623C123.565 215.793 123.652 215.966 123.744 216.147L123.885 216.63L123.958 216.601C124.764 218.479 124.825 220.791 124.297 223.365C123.731 226.127 122.496 229.141 120.852 232.144C117.563 238.15 112.684 244.026 108.444 247.621C106.306 249.433 104.795 250.383 103.734 250.718C103.213 250.883 102.841 250.885 102.573 250.807C102.314 250.731 102.095 250.563 101.901 250.27C101.489 249.644 101.261 248.551 101.132 247.031C101.043 245.978 101.004 244.783 100.963 243.484C100.945 242.934 100.927 242.365 100.904 241.78C100.757 238.056 102.779 233.99 105.013 230.258C105.568 229.332 106.13 228.433 106.671 227.571L106.674 227.566C107.212 226.707 107.729 225.881 108.188 225.107C109.096 223.576 109.824 222.171 110.019 221.04C110.114 220.493 110.126 220.014 110.03 219.621C109.931 219.214 109.706 218.873 109.329 218.693C108.971 218.522 108.566 218.539 108.184 218.637C107.796 218.737 107.377 218.934 106.943 219.199C105.217 220.255 102.929 222.602 100.865 225.696C98.9742 228.528 98.6464 231.637 98.2945 234.974C98.2502 235.393 98.2056 235.816 98.1575 236.243C97.7236 240.086 97.0052 244.361 93.8486 249.282L94.2695 249.552L93.8486 249.282C92.3329 251.645 89.8144 253.057 86.8122 253.825C83.8095 254.592 80.3727 254.702 77.1053 254.497C73.8422 254.293 70.7739 253.778 68.5191 253.314C67.3925 253.081 66.4708 252.862 65.8317 252.701C65.8309 252.701 65.8301 252.7 65.8292 252.7C69.1156 250.054 71.9726 245.561 73.8526 241.413C74.8759 239.155 75.6234 236.97 75.9963 235.196C76.1825 234.311 76.2791 233.511 76.2631 232.847C76.2475 232.205 76.1251 231.594 75.7755 231.186L75.7752 231.186C75.5406 230.912 75.2206 230.81 74.8993 230.821C74.5983 230.832 74.2858 230.939 73.9842 231.087C73.3777 231.385 72.6575 231.924 71.8776 232.604C70.3085 233.972 68.3789 236.015 66.4383 238.174C65.0961 239.667 63.7387 241.227 62.4837 242.669C61.9226 243.314 61.3819 243.935 60.8722 244.517C60.0454 245.46 59.3003 246.298 58.6772 246.965C58.047 247.64 57.5638 248.117 57.2544 248.357C56.0378 249.302 53.2784 249.971 49.7345 248.98C46.2157 247.996 41.955 245.378 37.8089 239.821C33.8108 234.463 35.9131 228.069 39.2084 222.845C40.8434 220.253 42.7409 218.003 44.233 216.399C44.9783 215.598 45.6206 214.959 46.0757 214.522C46.3032 214.304 46.4838 214.136 46.607 214.023C46.6175 214.013 46.6276 214.004 46.6372 213.995L46.7403 214.003C46.9488 214.02 47.2546 214.045 47.6449 214.075C48.4254 214.135 49.5436 214.217 50.8954 214.306C53.5985 214.483 57.238 214.686 60.9803 214.789C64.7199 214.892 68.5741 214.895 71.7023 214.669C73.2652 214.556 74.6614 214.386 75.7776 214.137C76.8639 213.896 77.7878 213.561 78.3026 213.05C78.5757 212.779 78.7534 212.437 78.7143 212.041C78.6774 211.668 78.4573 211.361 78.2018 211.119C77.6954 210.641 76.8238 210.21 75.7808 209.814C73.6653 209.012 70.5614 208.258 67.3873 207.609C64.2055 206.959 60.9248 206.409 58.4414 206.023C57.1992 205.83 56.1556 205.677 55.4222 205.572C55.298 205.555 55.1826 205.538 55.0767 205.523C56.2957 203.913 58.299 202.126 60.7096 200.314C63.4389 198.262 66.6434 196.211 69.7087 194.387C72.7727 192.563 75.6901 190.969 77.8421 189.831C78.9178 189.263 79.8017 188.808 80.4164 188.496Z" stroke="#E3D3D3"/>
<path d="M103.712 138.625C104.1 138.417 104.414 138.185 104.623 137.921C104.84 137.645 104.956 137.311 104.876 136.952C104.802 136.616 104.574 136.355 104.32 136.159C104.061 135.961 103.728 135.793 103.35 135.652C101.852 135.091 99.2936 134.815 96.3942 135.034C93.7171 135.236 91.6263 136.544 89.4109 137.93C89.132 138.104 88.8512 138.28 88.5669 138.455C86.0039 140.031 83.0512 141.634 78.5377 142.058C76.3957 142.259 74.3458 141.407 72.4447 139.942C70.5432 138.477 68.8324 136.429 67.3912 134.33C65.9524 132.233 64.7969 130.107 64.0005 128.502C63.6558 127.807 63.3789 127.211 63.1761 126.76C66.3732 127.446 70.4176 127.037 73.7978 126.215C75.6814 125.758 77.3909 125.164 78.6681 124.536C79.3053 124.223 79.8513 123.894 80.2602 123.558C80.6524 123.235 80.9934 122.846 81.0841 122.397L81.0841 122.397C81.1474 122.082 81.042 121.803 80.8635 121.591C80.6982 121.394 80.4662 121.246 80.2242 121.129C79.7369 120.893 79.0478 120.708 78.2534 120.555C76.6523 120.248 74.4651 120.044 72.2069 119.889C70.6441 119.782 69.0321 119.698 67.5428 119.621C66.8777 119.586 66.2371 119.553 65.6362 119.519C64.66 119.464 63.7891 119.409 63.0817 119.348C62.3639 119.285 61.8471 119.218 61.5605 119.146C60.4398 118.864 58.7256 117.524 57.64 114.892C56.5643 112.286 56.1237 108.437 57.5383 103.24C58.888 98.2823 63.7565 96.5092 68.54 96.0236C70.908 95.7832 73.1939 95.8671 74.8916 96.0123C75.7393 96.0847 76.4377 96.1723 76.9231 96.2415C77.1557 96.2747 77.3393 96.3036 77.4666 96.3246L77.4845 96.3519C77.5743 96.4882 77.7063 96.6879 77.8754 96.9421C78.2137 97.4506 78.7006 98.1771 79.2959 99.0502C80.4862 100.796 82.1109 103.13 83.8468 105.478C85.5812 107.825 87.4338 110.197 89.0789 112.013C89.9007 112.921 90.6804 113.701 91.3751 114.272C92.0461 114.823 92.7174 115.249 93.3122 115.324L93.3124 115.324C93.6319 115.364 93.9643 115.306 94.2197 115.062C94.4584 114.834 94.5465 114.521 94.5732 114.235C94.626 113.671 94.4658 112.91 94.2071 112.078C93.6804 110.385 92.6491 108.109 91.5222 105.848C90.3917 103.579 89.1518 101.299 88.1955 99.5878C87.7171 98.7317 87.3092 98.017 87.0208 97.5162C87.0067 97.4918 86.993 97.4679 86.9795 97.4445C88.5119 97.4504 90.4864 97.8129 92.6662 98.3978C95.2322 99.0863 98.0271 100.067 100.618 101.072C103.208 102.076 105.587 103.101 107.318 103.875C108.184 104.262 108.887 104.586 109.374 104.813C109.558 104.899 109.711 104.971 109.83 105.028C109.823 105.18 109.814 105.381 109.804 105.625C109.78 106.217 109.75 107.061 109.724 108.072C109.673 110.093 109.642 112.787 109.721 115.47C109.801 118.146 109.991 120.837 110.389 122.841C110.586 123.837 110.843 124.706 111.189 125.324C111.525 125.927 112.048 126.453 112.801 126.36C113.5 126.273 113.94 125.735 114.211 125.115C114.484 124.489 114.643 123.659 114.729 122.732C114.901 120.868 114.79 118.45 114.572 116.075C114.354 113.693 114.025 111.328 113.751 109.56C113.616 108.69 113.495 107.964 113.406 107.45L103.476 138.184M103.712 138.625L103.476 138.184M103.712 138.625C103.712 138.625 103.712 138.625 103.712 138.625L103.476 138.184M103.712 138.625C102.903 139.059 101.671 139.289 100.297 139.467C99.5997 139.557 98.843 139.636 98.0572 139.719L98.0526 139.719C97.2629 139.802 96.442 139.888 95.6081 139.992C92.2421 140.414 88.805 141.125 86.616 142.98C86.2665 143.277 85.9251 143.562 85.5954 143.837C84.8187 144.486 84.1066 145.081 83.5049 145.64C82.6329 146.45 82.0914 147.099 81.9154 147.623C81.8348 147.863 81.8402 148.051 81.9065 148.218C81.9765 148.393 82.1383 148.604 82.4788 148.838C83.1747 149.315 84.4652 149.783 86.6029 150.225C90.8338 151.098 96.7727 151.271 102.028 150.407C104.655 149.975 107.088 149.287 109.043 148.315C110.825 147.428 112.172 146.324 112.933 144.996M103.476 138.184C102.401 138.761 100.368 138.974 98.0017 139.222C94.0569 139.635 89.1869 140.145 86.2926 142.599C85.9509 142.889 85.6139 143.17 85.2864 143.444C81.1765 146.878 78.5504 149.072 86.5018 150.714C94.8921 152.447 109.803 151.454 113.364 145.249C113.357 145.245 113.35 145.24 113.343 145.236L112.933 144.996M112.933 144.996C113.009 144.864 113.079 144.73 113.143 144.593L113.143 144.592C113.149 144.579 113.156 144.565 113.162 144.551L113.186 144.518L113.187 144.517L113.187 144.517L113.187 144.516L113.188 144.515L113.189 144.514C113.191 144.51 113.197 144.501 113.205 144.489C113.221 144.463 113.246 144.421 113.277 144.363C113.339 144.246 113.424 144.063 113.509 143.818L113.982 143.979M112.933 144.996L113.943 145.052M113.943 145.052C113.964 145.07 113.985 145.087 114.006 145.106C114.015 145.088 114.023 145.07 114.032 145.052M113.943 145.052C113.986 145.083 113.998 145.092 114.002 145.094C114.003 145.095 114.003 145.095 114.003 145.095L114.003 145.095L114.003 145.094L114.004 145.093L114.005 145.091L114.009 145.086L114.02 145.069C114.024 145.064 114.028 145.058 114.032 145.052M113.943 145.052L114.032 145.052M114.032 145.052C114.038 145.042 114.046 145.03 114.054 145.017C114.082 144.972 114.118 144.91 114.16 144.831C114.187 144.78 114.217 144.721 114.248 144.656C114.24 144.65 114.233 144.644 114.226 144.638M114.226 144.638C114.297 144.485 114.367 144.336 114.435 144.191L113.982 143.979M114.226 144.638C114.099 144.536 113.973 144.447 113.848 144.373L113.729 144.576C113.801 144.438 113.893 144.239 113.982 143.979M114.226 144.638C114.168 144.762 114.109 144.888 114.048 145.017C114.048 145.017 114.048 145.017 114.048 145.017L113.595 144.805M113.982 143.979C113.859 144.242 113.731 144.517 113.595 144.805M113.595 144.805L113.188 144.515L113.188 144.515C113.188 144.515 113.188 144.515 113.595 144.805ZM122.814 177.434L122.399 177.322L122.269 177.805C122.765 177.866 122.765 177.866 122.765 177.866L122.765 177.865L122.766 177.863L122.767 177.856L122.77 177.826C122.773 177.8 122.778 177.762 122.783 177.713C122.791 177.643 122.802 177.549 122.814 177.434ZM120.651 154.557L121.069 154.283L120.651 154.557ZM125.524 116.413L125.097 116.674C125.103 116.683 125.108 116.692 125.114 116.701C125.115 116.702 125.116 116.704 125.117 116.705L125.129 116.72L125.132 116.724L125.133 116.724L125.133 116.725L125.524 116.413ZM116.686 138.202L116.442 137.765L116.442 137.765C116.442 137.765 116.442 137.765 116.449 137.778C116.465 137.806 116.517 137.898 116.686 138.202ZM62.3105 126.018C62.3105 126.018 62.397 126.232 62.5633 126.612L62.9248 126.189C62.7154 126.137 62.5105 126.08 62.3105 126.018ZM124.103 178.3L124.234 177.818L123.764 177.691C123.72 177.844 123.673 177.998 123.626 178.152L124.103 178.3Z" stroke="#E3D3D3"/>
<path d="M316.395 96.1739C311.288 97.426 304.614 96.7804 299.044 95.4188C296.06 94.6896 293.361 93.7474 291.354 92.7574C290.351 92.2631 289.504 91.7489 288.878 91.2325C288.269 90.7298 287.794 90.1649 287.671 89.5523C287.592 89.1562 287.722 88.8017 287.96 88.5187C288.185 88.2514 288.512 88.0377 288.881 87.8598C289.621 87.5024 290.687 87.2149 291.946 86.9747C294.477 86.4919 297.944 86.1727 301.539 85.9316C304.025 85.7648 306.588 85.6346 308.959 85.514C310.018 85.4602 311.039 85.4083 311.998 85.356C313.553 85.2711 314.943 85.1852 316.074 85.0879C317.216 84.9897 318.061 84.8825 318.543 84.7619C320.447 84.2859 323.238 82.0675 324.996 77.8241C326.744 73.6048 327.45 67.4095 325.195 59.082L325.131 58.8446C322.851 50.9361 315.001 48.129 307.44 47.3514C303.646 46.9612 299.986 47.091 297.272 47.3196C295.916 47.4337 294.798 47.5723 294.02 47.6821C293.632 47.737 293.328 47.7847 293.122 47.8186C293.085 47.8247 293.051 47.8304 293.02 47.8356C292.992 47.8786 292.958 47.9291 292.92 47.9867C292.777 48.2032 292.567 48.5205 292.298 48.9246C291.758 49.7326 290.982 50.8874 290.033 52.2752C288.135 55.0505 285.546 58.7595 282.78 62.4915C280.015 66.2214 277.067 69.9841 274.454 72.8619C273.148 74.3 271.915 75.528 270.824 76.4225C269.757 77.2975 268.745 77.9217 267.889 78.0285C267.439 78.0847 267.009 77.9994 266.686 77.6901C266.38 77.3968 266.254 76.9803 266.215 76.5593C266.138 75.7239 266.378 74.562 266.791 73.2416C267.625 70.5708 269.262 66.9683 271.061 63.3717C272.862 59.7681 274.839 56.1448 276.364 53.4239C277.126 52.0631 277.776 50.9272 278.236 50.1313C278.356 49.9238 278.463 49.7394 278.555 49.5802C276.005 49.4997 272.631 50.0966 268.913 51.0888C264.812 52.1834 260.349 53.7433 256.216 55.3396C252.085 56.9353 248.291 58.5643 245.529 59.7946C244.149 60.4097 243.027 60.9249 242.25 61.2861C241.862 61.4668 241.56 61.6089 241.356 61.7058C241.352 61.7077 241.347 61.7097 241.343 61.7116C241.344 61.7291 241.345 61.7473 241.346 61.7662C241.357 62.0186 241.374 62.3884 241.392 62.8586C241.429 63.799 241.476 65.1411 241.514 66.7492C241.591 69.9647 241.635 74.2478 241.503 78.5115C241.372 82.7688 241.064 87.0323 240.431 90.1975C240.116 91.7741 239.712 93.1206 239.184 94.0624C238.665 94.9895 237.923 95.6856 236.91 95.5589C235.949 95.4389 235.315 94.6983 234.902 93.7501C234.487 92.7955 234.24 91.5115 234.107 90.0461C233.84 87.1064 234.019 83.2785 234.37 79.502C234.722 75.7189 235.249 71.9607 235.689 69.1501C235.908 67.7443 236.106 66.5745 236.249 65.7558C236.279 65.5856 236.306 65.4305 236.331 65.2916C231.46 66.9682 226.76 70.5522 223.197 73.825C221.326 75.5436 219.781 77.1647 218.704 78.3559C218.166 78.9514 217.745 79.4389 217.459 79.7769C217.316 79.9458 217.207 80.0774 217.134 80.1663C217.098 80.2107 217.07 80.2445 217.052 80.267L217.045 80.2763C214.053 85.162 213.426 89.6968 214.142 93.7555C214.862 97.8351 216.947 101.472 219.433 104.521C221.919 107.569 224.788 110.006 227.042 111.684C228.167 112.522 229.136 113.168 229.822 113.604C230.165 113.822 230.437 113.987 230.623 114.098C230.716 114.153 230.787 114.194 230.835 114.222L230.888 114.252L230.901 114.259L230.904 114.261L230.904 114.261L231.151 114.4L231.16 114.683L230.66 114.698C231.16 114.683 231.16 114.683 231.16 114.683L231.16 114.684L231.16 114.686L231.16 114.694L231.161 114.723C231.161 114.747 231.162 114.784 231.162 114.831C231.163 114.925 231.163 115.063 231.161 115.243C231.156 115.604 231.14 116.131 231.099 116.805C231.016 118.153 230.827 120.089 230.407 122.454C229.567 127.185 227.8 133.636 224.089 140.529L224.078 140.548L224.066 140.567L224.066 140.567L224.066 140.567L224.065 140.568L224.062 140.572L224.05 140.592C224.043 140.602 224.034 140.616 224.024 140.633C224.016 140.645 224.007 140.659 223.997 140.675C223.95 140.75 223.88 140.862 223.791 141.011C223.613 141.308 223.356 141.751 223.047 142.327C222.496 143.354 221.778 144.803 221.037 146.609H222.796C223.001 145.964 223.223 145.336 223.466 144.729C223.474 144.704 223.484 144.679 223.497 144.653C223.5 144.647 223.503 144.641 223.506 144.635C223.507 144.634 223.507 144.633 223.508 144.631C223.697 144.206 223.964 143.61 224.294 142.886V142.871L224.341 142.779C224.345 142.771 224.349 142.762 224.353 142.755C225.216 141.064 225.797 139.822 226.164 138.928C226.173 138.901 226.185 138.875 226.198 138.851C227.512 136.157 229.118 133.05 230.715 130.425C231.515 129.11 232.318 127.909 233.086 126.938C233.7 126.161 234.312 125.506 234.902 125.062C234.779 124.824 234.628 124.489 234.482 124.062L235.409 123.689C235.514 123.915 235.623 124.149 235.734 124.387C235.822 124.576 235.912 124.769 236.002 124.964L236.293 125.373L236.225 125.413C237.444 127.715 239.702 129.595 242.678 131.08C245.824 132.651 249.727 133.757 253.927 134.453C262.327 135.846 271.82 135.583 278.594 134.193C282.004 133.494 284.111 132.742 285.272 131.949C285.845 131.557 286.151 131.179 286.292 130.827C286.429 130.485 286.43 130.112 286.285 129.677C285.979 128.762 285.063 127.682 283.679 126.393C282.716 125.496 281.574 124.539 280.335 123.502C279.813 123.064 279.273 122.612 278.722 122.143L278.722 122.143C275.167 119.12 269.612 117.977 264.257 117.299C262.926 117.131 261.616 116.992 260.36 116.858L260.354 116.858C259.102 116.725 257.9 116.598 256.794 116.453C254.601 116.166 252.692 115.801 251.461 115.138M316.395 96.1739L251.461 115.138M316.395 96.1739C316.364 96.2454 316.331 96.3207 316.295 96.3995C315.962 97.1484 315.47 98.2183 314.833 99.4983C313.557 102.06 311.706 105.456 309.401 108.806C307.093 112.159 304.345 115.443 301.28 117.798C298.216 120.152 294.877 121.548 291.366 121.213C284.114 120.522 279.37 117.938 275.277 115.412C274.822 115.132 274.375 114.851 273.931 114.573C270.4 112.358 267.139 110.314 262.956 109.992C258.362 109.638 254.336 110.074 252.006 110.942C251.42 111.161 250.918 111.414 250.537 111.706C250.16 111.995 249.857 112.356 249.758 112.798C249.655 113.261 249.8 113.705 250.104 114.093C250.4 114.469 250.861 114.815 251.461 115.138" stroke="#E3D3D3"/>
<path d="M363.887 126.074H324.167C321.001 126.074 318.41 128.665 318.41 131.831V149.257C318.41 152.166 320.79 154.545 323.699 154.545H324.719L322.804 162.628L334.819 154.545H364.231C367.395 154.545 369.983 151.956 369.983 148.793V132.169C369.983 128.816 367.24 126.074 363.889 126.074H363.887Z" fill="#D2E2F9"/>
<path d="M364.954 138.723H323.538C322.973 138.723 322.511 138.261 322.511 137.697C322.511 137.132 322.973 136.67 323.538 136.67H364.954C365.519 136.67 365.98 137.132 365.98 137.697C365.98 138.261 365.519 138.723 364.954 138.723Z" fill="#B4CFFC"/>
<path d="M364.954 143.315H323.538C322.973 143.315 322.511 142.853 322.511 142.289C322.511 141.724 322.973 141.262 323.538 141.262H364.954C365.519 141.262 365.98 141.724 365.98 142.289C365.98 142.853 365.519 143.315 364.954 143.315Z" fill="#B4CFFC"/>
<path d="M364.954 147.905H323.538C322.973 147.905 322.511 147.443 322.511 146.879C322.511 146.314 322.973 145.852 323.538 145.852H364.954C365.519 145.852 365.98 146.314 365.98 146.879C365.98 147.443 365.519 147.905 364.954 147.905Z" fill="#B4CFFC"/>
<path d="M342.389 131.593H324.807C324.136 131.593 323.586 131.044 323.586 130.372C323.586 129.701 324.136 129.15 324.807 129.15H342.389C343.06 129.15 343.61 129.699 343.61 130.372C343.61 131.042 343.06 131.593 342.389 131.593Z" fill="#B4CFFC"/>
<path d="M346.92 129.15H357.5C358.032 129.15 358.465 129.583 358.465 130.116V130.627C358.465 131.16 358.032 131.593 357.5 131.593H346.92C346.387 131.593 345.955 131.16 345.955 130.627V130.116C345.955 129.583 346.387 129.15 346.92 129.15Z" fill="#B4CFFC"/>
<path d="M283.332 32.5252L260.432 35.7928L275.628 25.4348L276.402 28.7556L281.971 29.7643L283.332 32.5252Z" fill="#9EC3F6"/>
<path d="M260.432 35.7929L279.488 25.9674L298.166 25.0278L260.432 35.7929Z" fill="white"/>
<path d="M275.628 25.4349L260.432 35.7929L272.197 19.6042L275.628 25.4349Z" fill="white"/>
<path d="M245.742 44.3683V247.845C245.742 252.861 241.676 256.925 236.659 256.925H122.75C117.734 256.925 113.668 252.861 113.668 247.845V44.3683C113.668 39.3518 117.734 35.2861 122.75 35.2861H236.659C241.676 35.2861 245.742 39.3518 245.742 44.3683Z" fill="#E6E2F8"/>
<path d="M157.735 231.31H212.946C214.677 231.31 216.08 229.907 216.08 228.176V211.194C216.08 209.463 214.677 208.06 212.946 208.06H157.735C156.004 208.06 154.601 209.463 154.601 211.194V228.176C154.601 229.907 156.004 231.31 157.735 231.31Z" fill="white"/>
<path d="M199.04 197.823H143.464C141.836 197.823 140.514 196.5 140.514 194.872V180.159C140.514 178.53 141.836 177.208 143.464 177.208H199.042C200.67 177.208 201.993 178.53 201.993 180.159V194.872C201.993 196.5 200.67 197.823 199.042 197.823H199.04Z" fill="#AD9BF5"/>
<path d="M243.428 35.2861H115.6V120.496H243.428V35.2861Z" fill="#F0F6FF"/>
<path d="M230.533 103.899C230.575 104.241 230.454 104.6 230.177 104.848C229.727 105.252 229.035 105.215 228.631 104.764C228.221 104.312 226.874 103.135 225.618 103.136C225.024 103.136 224.493 103.406 223.991 103.96C222.064 106.092 224.804 109.237 224.833 109.268C225.233 109.72 225.191 110.412 224.739 110.812C224.287 111.213 223.595 111.171 223.195 110.719C221.781 109.121 219.789 105.347 222.369 102.491C223.285 101.479 224.413 100.943 225.629 100.946C226.704 100.948 227.815 101.352 228.934 102.147C229.711 102.699 230.208 103.242 230.261 103.303C230.417 103.477 230.507 103.685 230.533 103.9V103.899Z" fill="#2C3A64"/>
<path d="M223.523 103.414C223.523 103.604 223.455 103.794 223.319 103.945C223.024 104.272 222.521 104.299 222.194 104.005L219.647 101.712C219.32 101.418 219.293 100.914 219.588 100.588C219.882 100.261 220.386 100.234 220.712 100.528L223.259 102.821C223.434 102.978 223.523 103.196 223.523 103.414Z" fill="#2C3A64"/>
<path d="M221.018 102.727L220.801 102.872C220.551 103.04 220.294 103.178 220.025 103.292C220.023 103.292 220.019 103.294 220.015 103.294C218.265 104.037 216.198 103.659 214.807 102.274C211.934 99.4164 208.132 97.431 203.452 96.3563C203.272 96.3145 203.093 96.2758 202.915 96.2405C201.145 95.8656 199.509 95.6806 198.157 95.5953C196.07 95.4634 194.383 93.84 194.194 91.7565L194.18 91.6133L194.114 90.8909C193.945 89.0777 195.399 87.5283 197.219 87.5782C198.999 87.6281 201.348 87.8115 203.97 88.3231C205.725 88.6642 207.603 89.1501 209.514 89.8435C213.71 91.3623 218.067 93.8561 221.655 97.9362C222.932 99.3923 222.628 101.646 221.018 102.726V102.727Z" fill="#97BDFF"/>
<path d="M220.017 103.294C218.267 104.037 216.199 103.659 214.809 102.274C211.936 99.4164 208.134 97.431 203.454 96.3563C203.273 96.3144 203.095 96.2758 202.916 96.2404C203.328 92.3694 203.756 88.4405 203.756 88.4405L203.973 88.3247C205.728 88.6658 207.606 89.1517 209.517 89.8451C209.517 89.8451 208.634 93.7386 211.836 95.6242C215.036 97.5099 217.666 104.1 220.019 103.295L220.017 103.294Z" fill="#4C88F2"/>
<path d="M170.52 85.6234C168.885 84.1577 169.475 81.6865 169.501 81.5819L171.062 82.0244L170.282 81.8023L171.062 82.0195C171.059 82.034 170.711 83.5448 171.557 84.3025L170.52 85.6218V85.6234Z" fill="#F99746"/>
<path d="M192.478 85.6234C194.112 84.1577 193.522 81.6865 193.494 81.5819L191.934 82.0244L192.714 81.8023L191.932 82.0195C191.935 82.034 192.283 83.5448 191.437 84.3025L192.474 85.6218L192.478 85.6234Z" fill="#F99746"/>
<path d="M156.353 86.88V120.496H198.115V86.88C198.115 85.3709 196.881 84.1368 195.374 84.1368H159.098C158.599 84.1368 158.133 84.272 157.729 84.5069C157.208 84.8077 156.796 85.2743 156.562 85.8342C156.427 86.1576 156.355 86.5116 156.355 86.8816L156.353 86.88Z" fill="#AD9BF5"/>
<path d="M165.962 86.88V120.496H207.724V86.88C207.724 85.3709 206.49 84.1368 204.98 84.1368H168.706C167.197 84.1368 165.963 85.3709 165.963 86.88H165.962Z" fill="#CEC4F6"/>
<path d="M190.496 82.4587H177.235V84.1352H190.496V82.4587Z" fill="#97BDFF"/>
<path d="M179.65 82.4587H171.982V84.1352H179.65V82.4587Z" fill="#4C88F2"/>
<path d="M203.923 88.3424L201.985 90.7445C201.653 91.1548 201.029 91.1548 200.698 90.7445L199.922 89.784L198.683 88.2491C198.426 87.9306 198.653 87.4559 199.061 87.4559H203.499C203.956 87.4559 204.21 87.9869 203.922 88.3424H203.923Z" fill="#97BDFF"/>
<path d="M203.923 88.3424L201.985 90.7445C201.653 91.1548 201.029 91.1548 200.697 90.7445L199.922 89.784C201.618 89.3737 202.268 88.1703 202.507 87.4559H203.499C203.955 87.4559 204.21 87.9869 203.922 88.3424H203.923Z" fill="#4C88F2"/>
<path d="M163.579 93.6357C163.579 93.6357 163.579 93.6341 163.579 93.6308L163.846 92.8457L163.901 92.6896C164.681 90.4163 163.677 87.9257 161.548 86.8027C160.036 86.0079 158.213 84.9203 156.357 83.5174C151.956 80.1918 148.899 76.3256 147.229 71.9816C146.298 69.5538 143.794 68.109 141.23 68.5434L140.931 68.5949C139.832 68.7832 138.937 69.4315 138.401 70.3003C137.864 71.1659 137.687 72.2519 138.014 73.317C141.951 86.0578 152.983 92.865 158.763 95.6484C160.649 96.5558 162.9 95.6162 163.574 93.6357H163.579Z" fill="#97BDFF"/>
<path d="M163.58 93.6308L163.848 92.8457L163.902 92.6896C164.683 90.4163 163.679 87.9257 161.55 86.8027C160.038 86.0079 158.215 84.9203 156.358 83.5174C151.958 80.1918 148.901 76.3256 147.231 71.9816C146.299 69.5538 143.796 68.109 141.231 68.5434L140.932 68.5949C139.833 68.7832 138.939 69.4315 138.403 70.3003C140.84 69.7517 143.659 69.8708 144.839 72.7507C147.11 78.2965 153.811 84.3282 159.216 87.5846C164.499 90.7654 163.621 93.5102 163.579 93.6308H163.58Z" fill="#4C88F2"/>
<path d="M141.798 57.4839C141.441 57.3086 141.008 57.3037 140.634 57.5113C140.026 57.8475 139.806 58.6118 140.142 59.2199C140.477 59.8361 141.249 61.741 140.773 63.1038C140.548 63.7473 140.055 64.222 139.265 64.5566C136.225 65.8437 133.847 61.6847 133.824 61.6413C133.485 61.0364 132.717 60.8208 132.112 61.1602C131.507 61.4997 131.292 62.2672 131.631 62.8721C132.831 65.0087 136.175 68.5949 140.247 66.8718C141.692 66.2604 142.695 65.2388 143.152 63.9179C143.556 62.7514 143.537 61.3919 143.098 59.8796C142.792 58.8273 142.39 58.084 142.345 58.002C142.216 57.7687 142.023 57.5917 141.799 57.4823L141.798 57.4839Z" fill="#2C3A64"/>
<path d="M139.677 65.2726C139.471 65.2018 139.24 65.2034 139.024 65.2935C138.559 65.4898 138.34 66.0255 138.535 66.4905L140.06 70.1186C140.256 70.5835 140.792 70.8023 141.257 70.6077C141.722 70.4114 141.941 69.8756 141.746 69.4106L140.221 65.7826C140.117 65.5332 139.914 65.3546 139.677 65.2726Z" fill="#2C3A64"/>
<path d="M175.818 61.3099C175.818 60.1885 174.909 59.2778 173.786 59.2778C172.663 59.2778 171.754 60.1869 171.754 61.3099C171.754 62.4329 172.663 63.3419 173.786 63.3419C174.909 63.3419 175.818 62.4329 175.818 61.3099Z" fill="#2C3A64"/>
<path d="M173.786 60.5296C173.947 60.5296 174.077 60.3976 174.077 60.2384V52.0153C174.077 51.8544 173.945 51.7241 173.786 51.7241C173.625 51.7241 173.494 51.856 173.494 52.0153V60.2384C173.494 60.3993 173.626 60.5296 173.786 60.5296Z" fill="#2C3A64"/>
<path d="M199.447 61.3099C199.447 60.1885 198.538 59.2778 197.415 59.2778C196.292 59.2778 195.383 60.1869 195.383 61.3099C195.383 62.4329 196.292 63.3419 197.415 63.3419C198.538 63.3419 199.447 62.4329 199.447 61.3099Z" fill="#2C3A64"/>
<path d="M194.685 60.8369H162.54C160.337 60.8369 158.551 62.6226 158.551 64.8253V78.4703C158.551 80.6731 160.337 82.4588 162.54 82.4588H194.685C196.888 82.4588 198.674 80.6731 198.674 78.4703V64.8253C198.674 62.6226 196.888 60.8369 194.685 60.8369Z" fill="#AD9BF5"/>
<path d="M203.156 60.8369H170.528C168.458 60.8369 166.781 62.5145 166.781 64.584V78.7117C166.781 80.7811 168.458 82.4588 170.528 82.4588H203.156C205.225 82.4588 206.903 80.7811 206.903 78.7117V64.584C206.903 62.5145 205.225 60.8369 203.156 60.8369Z" fill="#CEC4F6"/>
<path d="M194.22 74.8309H177.805C177.805 74.8309 179.478 78.3029 186.842 78.3045C192.886 78.3045 194.22 74.8309 194.22 74.8309Z" fill="white"/>
<path d="M168.998 72.6493H203.579V65.0698H168.998V72.6493Z" fill="#4C88F2"/>
<path d="M196.875 69.0277H197.663V68.2394H196.875V69.0277Z" fill="white"/>
<path d="M197.874 69.0277H198.662V68.2394H197.874V69.0277Z" fill="white"/>
<path d="M197.874 70.0574H198.662V69.269H197.874V70.0574Z" fill="white"/>
<path d="M198.907 69.0277H199.695V68.2394H198.907V69.0277Z" fill="white"/>
<path d="M195.873 69.0277H196.661V68.2394H195.873V69.0277Z" fill="white"/>
<path d="M195.873 70.0574H196.661V69.269H195.873V70.0574Z" fill="white"/>
<path d="M194.87 69.0277H195.659V68.2394H194.87V69.0277Z" fill="white"/>
<path d="M196.875 68.0077H197.663V67.2193H196.875V68.0077Z" fill="white"/>
<path d="M196.875 67.0601H197.663V66.2717H196.875V67.0601Z" fill="white"/>
<path d="M195.873 68.0077H196.661V67.2193H195.873V68.0077Z" fill="white"/>
<path d="M197.874 68.0077H198.662V67.2193H197.874V68.0077Z" fill="white"/>
<path d="M196.875 70.0574H197.663V69.269H196.875V70.0574Z" fill="white"/>
<path d="M196.875 71.0984H197.663V70.31H196.875V71.0984Z" fill="white"/>
<path d="M175.792 69.0277H176.58V68.2394H175.792V69.0277Z" fill="white"/>
<path d="M176.789 69.0277H177.578V68.2394H176.789V69.0277Z" fill="white"/>
<path d="M176.789 70.0574H177.578V69.269H176.789V70.0574Z" fill="white"/>
<path d="M177.824 69.0277H178.612V68.2394H177.824V69.0277Z" fill="white"/>
<path d="M174.788 69.0277H175.576V68.2394H174.788V69.0277Z" fill="white"/>
<path d="M174.788 70.0574H175.576V69.269H174.788V70.0574Z" fill="white"/>
<path d="M173.786 69.0277H174.574V68.2394H173.786V69.0277Z" fill="white"/>
<path d="M175.792 68.0077H176.58V67.2193H175.792V68.0077Z" fill="white"/>
<path d="M175.792 67.0601H176.58V66.2717H175.792V67.0601Z" fill="white"/>
<path d="M174.788 68.0077H175.576V67.2193H174.788V68.0077Z" fill="white"/>
<path d="M176.789 68.0077H177.578V67.2193H176.789V68.0077Z" fill="white"/>
<path d="M175.792 70.0574H176.58V69.269H175.792V70.0574Z" fill="white"/>
<path d="M175.792 71.0984H176.58V70.31H175.792V71.0984Z" fill="white"/>
<path d="M197.415 60.5296C197.576 60.5296 197.707 60.3976 197.707 60.2384V52.0153C197.707 51.8544 197.575 51.7241 197.415 51.7241C197.254 51.7241 197.124 51.856 197.124 52.0153V60.2384C197.124 60.3993 197.256 60.5296 197.415 60.5296Z" fill="#2C3A64"/>
<path d="M175.803 86.6274C175.803 86.3152 175.551 86.061 175.237 86.061C174.923 86.061 174.67 86.3136 174.67 86.6274C174.67 86.9411 174.923 87.1937 175.237 87.1937C175.551 87.1937 175.803 86.9411 175.803 86.6274Z" fill="white"/>
<path d="M173.38 86.6274C173.38 86.3152 173.128 86.061 172.814 86.061C172.5 86.061 172.247 86.3136 172.247 86.6274C172.247 86.9411 172.5 87.1937 172.814 87.1937C173.128 87.1937 173.38 86.9411 173.38 86.6274Z" fill="white"/>
<path d="M170.98 86.6274C170.98 86.3152 170.727 86.061 170.413 86.061C170.1 86.061 169.847 86.3136 169.847 86.6274C169.847 86.9411 170.1 87.1937 170.413 87.1937C170.727 87.1937 170.98 86.9411 170.98 86.6274Z" fill="white"/>
<path d="M195.819 46.3602H163.589C158.818 46.3602 154.95 42.4924 154.95 37.722H204.459C204.459 42.4924 200.591 46.3602 195.821 46.3602H195.819Z" fill="#1E1E1E"/>
<path d="M236.893 259.361H122.515C116.361 259.361 111.354 254.087 111.354 247.605V44.6065C111.354 38.1243 116.361 32.8503 122.515 32.8503H236.893C243.047 32.8503 248.054 38.1243 248.054 44.6065V247.606C248.054 254.089 243.047 259.363 236.893 259.363V259.361ZM122.515 37.7221C118.911 37.7221 115.98 40.8111 115.98 44.6065V247.606C115.98 251.402 118.911 254.491 122.515 254.491H236.893C240.497 254.491 243.428 251.402 243.428 247.606V44.6065C243.428 40.8111 240.497 37.7221 236.893 37.7221H122.515Z" fill="#1E1E1E"/>
<path d="M113.523 242.625H245.885V247.254C245.885 252.551 241.586 256.85 236.289 256.85H119.564C116.231 256.85 113.523 254.142 113.523 250.808V242.625Z" fill="#1E1E1E"/>
<path d="M256.595 146.53C261.584 145.464 266.788 146.972 270.478 150.492C272.107 152.045 273.894 153.985 275.535 156.278C279.604 161.959 271.814 167.582 272.848 169.506C273.884 171.43 276.285 172.951 275.234 176.97C274.184 180.989 267.256 186.203 264.997 186.435C242.107 188.785 232.172 176.165 239.824 169.363C247.476 162.561 244.353 152.692 250.567 148.858C252.485 147.674 254.594 146.956 256.594 146.528L256.595 146.53Z" fill="#1E1E1E"/>
<path d="M268.237 181.719C268.237 181.719 289.795 191.112 293.707 190.94C297.62 190.769 321.733 183.595 321.733 183.595L321.118 187.743C321.118 187.743 302.51 198.445 296.005 199.052C289.6 199.65 267.7 193.303 265.586 191.963C263.472 190.623 262.093 183.074 268.237 181.718V181.719Z" fill="#ED985F"/>
<path d="M270.856 191.976C268.963 193.289 266.59 194.373 263.608 195.06C252.438 197.641 248.157 188.2 246.548 181.719C248.071 180.847 249.505 180.656 250.332 180.556C251.139 180.461 251.989 180.397 252.692 180.363C253.947 179.402 255.815 175.47 256.228 169.365L256.754 169.506L265.558 171.916C265.558 171.916 265.154 174.716 264.957 177.361C264.804 179.431 264.78 181.409 265.172 181.893C265.859 182.043 266.271 182.139 266.271 182.139C266.271 182.139 266.271 182.142 266.276 182.147C266.395 182.34 268.948 186.541 270.855 191.978L270.856 191.976Z" fill="#FFB27D"/>
<path d="M265.562 171.916C265.562 171.916 265.156 174.712 264.961 177.361C259.974 176.862 257.659 172.112 256.758 169.508L265.562 171.916Z" fill="#ED985F"/>
<path d="M267.051 174.544C267.051 174.544 255.212 173.89 255.733 166.523C256.253 159.156 255.075 154.111 262.656 154.217C270.237 154.323 271.505 157.237 271.93 159.739C272.354 162.239 270.144 174.524 267.051 174.544Z" fill="#FFB27D"/>
<path d="M271.872 155.617C270.203 153.269 268.786 153.657 267.965 154.268C261.757 150.251 257.215 155.206 257.215 155.206C256.045 160.435 252.016 163.19 252.016 163.19C252.016 163.19 254.114 164.868 259.137 163.754C265.563 162.33 267.769 156.759 268.068 155.903C268.744 156.603 269.616 157.048 270.285 158.567C271.08 160.371 271.579 161.418 271.593 164.38C271.593 164.38 274.375 159.138 271.873 155.618L271.872 155.617Z" fill="#1E1E1E"/>
<path d="M243.177 216.046C242.107 210.581 238.622 188.745 242.107 181.718C243.359 179.193 248.272 178.965 253.662 179.187C255.339 180.27 261.731 184.361 264.355 183.851C264.382 183.846 264.434 183.833 264.501 183.817C265.737 183.508 266.204 182.639 265.174 181.891C265.172 181.891 267.843 181.634 271.159 182.258C273.032 182.611 278.082 185.223 278.082 185.223C278.082 185.223 275.538 189.818 271.788 191.405C272.425 197.11 271.477 199.626 265.56 212.803C260.56 223.941 266.234 233.968 266.234 233.968C266.234 233.968 236.796 257.636 236.632 245.586C236.51 236.513 244.543 223.034 243.177 216.048V216.046Z" fill="white"/>
<path d="M267.695 259.704C269.296 259.524 270.737 258.647 271.632 257.306C271.773 257.094 271.926 256.866 272.087 256.621C275.439 251.548 276.742 236.013 284.279 219.462C286.115 215.434 292.705 214.708 294.502 210.153C294.502 210.153 298.925 195.39 286.036 194.954C273.147 194.518 251.519 236.032 251.178 240.386C250.847 244.603 242.657 262.527 267.695 259.702V259.704Z" fill="#CEE993"/>
<path d="M318.92 259.364H300.576C300.576 259.364 299.89 256.439 301.094 254.447C302.161 252.686 301.752 251.682 300.962 250.226C301.794 250.565 302.868 250.876 304.051 250.808C304.965 250.755 305.932 250.34 306.78 249.849C307.57 250.749 310.95 254.581 312.007 255.34C313.206 256.201 318.552 255.895 318.92 259.367V259.364Z" fill="#233862"/>
<path d="M294.922 199.222C296.027 207.503 300.341 233.641 307.949 246.393C310.403 250.504 301.768 252.81 301.721 252.797C300.563 252.494 298.634 250.647 297.746 249.846C291.568 244.279 279.028 228.514 279.028 215.874C279.028 209.712 278.92 197.942 283.401 194.951C286.16 193.109 294.483 195.932 294.922 199.222Z" fill="#CEE993"/>
<path d="M256.756 259.364C256.756 259.364 257.435 258.418 258.621 256.621C260.032 254.484 261.592 250.279 263.488 244.889C265.478 239.231 267.838 232.269 270.787 225.026C271.698 222.789 272.665 220.527 273.693 218.267C275.529 214.238 280.579 214.795 282.376 210.24C282.376 210.24 289.388 194.45 276.499 194.014C263.61 193.578 239.119 236.254 237.712 240.387C236.17 244.912 228.654 263.699 256.756 259.364Z" fill="#E1F1BC"/>
<path d="M305.454 259.364H287.109C287.109 259.364 286.424 256.439 287.627 254.447C288.694 252.686 288.285 251.682 287.496 250.226C288.326 250.565 289.402 250.876 290.585 250.808C291.498 250.755 292.465 250.34 293.313 249.849C294.103 250.749 297.483 254.581 298.541 255.34C299.739 256.201 305.086 255.895 305.454 259.367V259.364Z" fill="#2B478B"/>
<path d="M263.488 244.889C265.478 239.231 267.838 232.269 270.787 225.026C270.017 219.538 268.355 214.737 265.562 212.801C265.562 212.801 258.783 233.802 263.488 244.889Z" fill="#E1F1BC"/>
<path d="M284.213 198.637C285.319 206.918 286.874 233.643 294.483 246.395C296.936 250.506 288.303 252.811 288.255 252.798C287.097 252.496 285.167 250.649 284.279 249.848C278.101 244.281 265.562 228.515 265.562 215.876C265.562 209.714 272.793 198.437 277.274 195.446C280.033 193.604 283.774 195.347 284.213 198.637Z" fill="#E1F1BC"/>
<path d="M323.922 172.923L305.137 170.928C304.59 170.87 304.072 171.189 303.876 171.702L297.154 189.365C296.859 190.139 297.411 190.974 298.238 191.007L316.879 191.759C317.386 191.78 317.85 191.482 318.047 191.015L324.913 174.597C325.227 173.849 324.73 173.009 323.922 172.923Z" fill="#233862"/>
<path d="M325.554 173.094L306.767 171.099C306.22 171.041 305.702 171.36 305.505 171.873L298.784 189.535C298.489 190.309 299.039 191.144 299.868 191.178L318.509 191.929C319.015 191.95 319.48 191.652 319.677 191.186L326.543 174.767C326.857 174.019 326.36 173.179 325.552 173.094H325.554Z" fill="#1E1E1E"/>
<path d="M315.141 181.341C315.371 180.71 315.046 180.2 314.416 180.2C313.785 180.2 313.088 180.712 312.858 181.341C312.628 181.972 312.953 182.483 313.584 182.483C314.214 182.483 314.911 181.972 315.141 181.341Z" fill="#EBF3FA"/>
<path d="M324.992 174.764C325.105 174.455 324.946 174.203 324.635 174.203C324.325 174.203 323.984 174.453 323.871 174.764C323.758 175.075 323.918 175.326 324.228 175.326C324.539 175.326 324.88 175.075 324.992 174.764Z" fill="#EBF3FA"/>
<path d="M246.549 181.719C246.549 181.719 272.586 191.308 276.497 191.112C279.026 190.985 300.043 183.597 300.043 183.597L301.93 187.167C301.93 187.167 281.473 200.315 275.85 200.25C264.747 200.122 246.012 193.306 243.898 191.966C241.784 190.626 240.405 183.077 246.549 181.721V181.719Z" fill="#FFB27D"/>
<path d="M300.045 183.595C300.045 183.595 301.932 180.691 303.811 180.606C305.69 180.521 308.936 181.887 310.046 182.101C311.156 182.315 314.316 183.339 313.376 184.876C312.437 186.412 308.081 186.755 306.202 186.412C304.323 186.071 301.932 187.164 301.932 187.164L300.045 183.594V183.595Z" fill="#FFB27D"/>
<path d="M303.3 180.696C303.3 180.696 306.287 179.325 307.142 179.069C307.996 178.814 307.825 179.074 307.568 179.883C307.312 180.693 305.774 181.465 305.774 181.719C305.774 181.973 303.298 180.696 303.298 180.696H303.3Z" fill="#FFB27D"/>
<path d="M323.62 182.059C323.62 182.059 321.736 179.079 321.12 178.957C319.241 178.585 319.241 181.06 319.64 182.656C320.068 184.367 321.514 185.984 321.915 185.843C322.315 185.701 324.064 183.632 323.62 182.059Z" fill="#FFB27D"/>
<path d="M323.691 182.656C323.691 182.656 324.292 185.999 321.118 187.743L322.058 185.442L323.691 182.656Z" fill="#FFB27D"/>
<path d="M269.267 170.307C269.267 170.307 268.147 169.865 264.998 170.119C264.998 170.119 265.166 171.348 267.489 171.469C268.805 171.538 269.268 170.306 269.268 170.306L269.267 170.307Z" fill="white"/>
<path d="M259.964 186.448C259.964 186.448 257.636 193.82 249.638 195.498C249.638 195.498 236.431 191.429 243.007 182.432C243.007 182.432 249.508 177.6 259.964 186.449V186.448Z" fill="white"/>
<path d="M208.303 188.01C208.303 191.852 209.923 195.317 212.516 197.758C214.91 200.012 218.136 201.393 221.684 201.393C221.972 201.393 222.258 201.383 222.543 201.365C225.896 201.153 228.913 199.707 231.146 197.473C231.439 197.181 231.719 196.872 231.986 196.553C232.402 196.05 232.784 195.517 233.123 194.957C234.355 192.933 235.065 190.555 235.065 188.012C235.065 184.318 233.567 180.971 231.146 178.55C228.724 176.128 225.379 174.63 221.684 174.63C217.988 174.63 214.643 176.128 212.222 178.55C209.801 180.971 208.303 184.318 208.303 188.012V188.01Z" fill="white"/>
<path d="M213.911 194.069C214.148 194.233 214.412 194.37 214.703 194.478C216.788 196.292 220.104 199.221 222.543 201.364C225.896 201.151 228.913 199.705 231.146 197.472C231.439 197.179 231.719 196.87 231.986 196.551C232.402 196.048 232.784 195.515 233.123 194.955C232.835 194.445 232.491 193.929 232.085 193.404C229.933 190.619 228.177 189.675 228.658 186.079C228.919 184.128 227.666 177.227 223.182 176.871C222.807 176.841 220.543 176.461 218.902 176.917C214.927 178.019 209.334 190.915 213.91 194.071L213.911 194.069Z" fill="#1E1E1E"/>
<path d="M218.55 193.302C218.529 193.31 220.411 194.442 221.901 194.135C223.302 193.847 224.726 191.953 224.707 191.947C224.131 191.794 223.603 191.147 223.832 187.704L223.565 187.74L219.076 188.337C219.076 188.337 219.089 189.738 219.008 191.052C218.942 192.156 218.809 193.199 218.548 193.3L218.55 193.302Z" fill="#FFB27D"/>
<path d="M219.078 188.338C219.078 188.338 219.09 189.739 219.01 191.054C221.496 191.141 222.949 188.961 223.566 187.74L219.078 188.337V188.338Z" fill="#ED975D"/>
<path d="M218.17 189.53C218.17 189.53 224.033 189.998 224.268 186.343C224.503 182.688 225.418 180.286 221.684 179.833C217.951 179.38 217.132 180.728 216.758 181.93C216.383 183.13 216.65 189.316 218.169 189.532L218.17 189.53Z" fill="#FFB27D"/>
<path d="M217.385 180.031C217.385 180.031 220.352 183.963 222.778 184.753C225.204 185.543 226.316 184.95 226.316 184.95C226.316 184.95 225.116 183.42 224.66 181.27C224.525 180.636 224.063 180.121 223.444 179.932C221.706 179.396 218.363 178.599 217.385 180.031Z" fill="#1E1E1E"/>
<path d="M219.726 180.244C219.726 180.244 218.251 181.159 217.678 181.952C217.124 182.717 216.576 184.712 216.698 185.579C216.698 185.579 215.596 181.471 217.062 179.907C218.614 178.25 219.728 180.245 219.728 180.245L219.726 180.244Z" fill="#1E1E1E"/>
<path d="M212.516 197.758C214.911 200.012 218.136 201.393 221.684 201.393H222.572C222.562 201.385 222.553 201.375 222.541 201.365C225.894 201.153 228.911 199.706 231.144 197.473C231.437 197.18 231.717 196.872 231.984 196.553C231.519 195.544 231.075 194.724 230.69 194.19C229.032 191.876 224.239 191.582 224.239 191.582C224.239 191.582 224.237 191.583 224.236 191.585C224.226 191.591 224.216 191.594 224.208 191.601C222.384 192.677 221.184 193.018 220.397 193.018C219.234 193.018 218.968 192.281 218.918 192.095V192.093V192.09C218.912 192.066 218.912 192.051 218.912 192.051C218.912 192.051 215.453 192.637 213.911 194.072C213.586 194.373 213.348 194.712 213.245 195.092C213.117 195.564 212.853 196.532 212.516 197.76V197.758Z" fill="#F99746"/>
<path d="M210.01 170.148H100.234C96.9611 170.148 94.3064 167.492 94.3064 164.221V134.037C94.3064 130.764 96.9627 128.109 100.234 128.109H210.01C213.281 128.109 215.937 130.766 215.937 134.037V164.221C215.937 167.493 213.281 170.148 210.01 170.148Z" fill="white"/>
<path d="M133.713 149.125C133.713 152.117 132.878 154.912 131.43 157.296C131.43 157.299 131.427 157.299 131.427 157.303C131.028 157.957 130.581 158.585 130.091 159.172C129.778 159.547 129.451 159.911 129.105 160.257C128.27 161.092 127.343 161.833 126.336 162.464C124.182 163.819 121.677 164.66 118.987 164.834C118.655 164.855 118.318 164.866 117.978 164.866C114.77 164.866 111.787 163.904 109.3 162.255C108.55 161.761 107.849 161.203 107.197 160.591C106.013 159.475 105.001 158.183 104.208 156.749C102.954 154.492 102.242 151.89 102.242 149.125C102.242 144.782 104.003 140.845 106.851 137.998C109.7 135.153 113.633 133.391 117.98 133.391C122.327 133.391 126.259 135.153 129.107 137.998C131.956 140.847 133.716 144.782 133.716 149.125H133.713Z" fill="#DFEBFD"/>
<path d="M111.711 155.776C110.846 154.999 111.158 153.691 111.172 153.635L111.999 153.869L111.586 153.752L111.999 153.866C111.999 153.866 111.814 154.674 112.262 155.076L111.711 155.776Z" fill="#AD9BF5"/>
<path d="M123.347 155.776C124.212 154.999 123.9 153.691 123.886 153.635L123.059 153.869L123.472 153.752L123.059 153.866C123.059 153.866 123.246 154.674 122.797 155.076L123.347 155.776Z" fill="#AD9BF5"/>
<path d="M126.333 156.439V162.464C124.179 163.819 121.674 164.66 118.984 164.834C118.652 164.855 118.314 164.866 117.975 164.866C114.767 164.866 111.784 163.904 109.296 162.255C108.547 161.761 107.845 161.203 107.194 160.591C106.009 159.475 104.997 158.183 104.204 156.749V156.44C104.204 155.641 104.859 154.989 105.659 154.989H124.882C125.681 154.989 126.333 155.641 126.333 156.44V156.439Z" fill="#AD9BF5"/>
<path d="M131.425 156.439V157.303C131.026 157.958 130.579 158.585 130.09 159.172C129.776 159.547 129.449 159.911 129.103 160.257C128.268 161.092 127.342 161.833 126.335 162.464C124.18 163.819 121.675 164.66 118.985 164.834C118.654 164.855 118.316 164.866 117.976 164.866C114.768 164.866 111.785 163.904 109.298 162.255V156.439C109.298 155.639 109.953 154.988 110.752 154.988H129.972C130.772 154.988 131.427 155.639 131.427 156.439H131.425Z" fill="#CEC4F6"/>
<path d="M122.296 154.099H115.27V154.988H122.296V154.099Z" fill="#4C88F2"/>
<path d="M116.551 154.099H112.487V154.988H116.551V154.099Z" fill="#2C3A64"/>
<path d="M113.443 143.968C114.037 143.968 114.519 143.486 114.519 142.892C114.519 142.297 114.037 141.816 113.443 141.816C112.848 141.816 112.366 142.297 112.366 142.892C112.366 143.486 112.848 143.968 113.443 143.968Z" fill="#2C3A64"/>
<path d="M113.443 142.478C113.528 142.478 113.597 142.409 113.597 142.324V137.967C113.597 137.882 113.528 137.813 113.443 137.813C113.357 137.813 113.288 137.882 113.288 137.967V142.324C113.288 142.409 113.357 142.478 113.443 142.478Z" fill="#2C3A64"/>
<path d="M125.963 143.968C126.557 143.968 127.039 143.486 127.039 142.892C127.039 142.297 126.557 141.816 125.963 141.816C125.368 141.816 124.887 142.297 124.887 142.892C124.887 143.486 125.368 143.968 125.963 143.968Z" fill="#2C3A64"/>
<path d="M124.515 142.643H107.483C106.316 142.643 105.369 143.589 105.369 144.757V151.985C105.369 153.153 106.316 154.099 107.483 154.099H124.515C125.682 154.099 126.629 153.153 126.629 151.985V144.757C126.629 143.589 125.682 142.643 124.515 142.643Z" fill="#AD9BF5"/>
<path d="M111.716 142.643H129.005C130.101 142.643 130.991 143.532 130.991 144.628V152.114C130.991 153.21 130.101 154.099 129.005 154.099H111.716C110.621 154.099 109.731 153.21 109.731 152.114V144.628C109.731 143.532 110.621 142.643 111.716 142.643Z" fill="#CEC4F6"/>
<path d="M124.27 150.056H115.571C115.571 150.056 116.458 151.897 120.361 151.897C123.564 151.897 124.27 150.056 124.27 150.056Z" fill="#EBF3FA"/>
<path d="M110.905 148.9H129.229V144.884H110.905V148.9Z" fill="#4C88F2"/>
<path d="M125.677 146.982H126.095V146.563H125.677V146.982Z" fill="#EBF3FA"/>
<path d="M126.206 146.982H126.624V146.563H126.206V146.982Z" fill="#EBF3FA"/>
<path d="M126.206 147.527H126.624V147.109H126.206V147.527Z" fill="#EBF3FA"/>
<path d="M126.753 146.982H127.171V146.563H126.753V146.982Z" fill="#EBF3FA"/>
<path d="M125.144 146.982H125.562V146.563H125.144V146.982Z" fill="#EBF3FA"/>
<path d="M125.144 147.527H125.562V147.109H125.144V147.527Z" fill="#EBF3FA"/>
<path d="M124.613 146.982H125.031V146.563H124.613V146.982Z" fill="#EBF3FA"/>
<path d="M125.677 146.441H126.095V146.023H125.677V146.441Z" fill="#EBF3FA"/>
<path d="M125.677 145.939H126.095V145.521H125.677V145.939Z" fill="#EBF3FA"/>
<path d="M125.144 146.441H125.562V146.023H125.144V146.441Z" fill="#EBF3FA"/>
<path d="M126.206 146.441H126.624V146.023H126.206V146.441Z" fill="#EBF3FA"/>
<path d="M125.677 147.527H126.095V147.109H125.677V147.527Z" fill="#EBF3FA"/>
<path d="M125.677 148.079H126.095V147.661H125.677V148.079Z" fill="#EBF3FA"/>
<path d="M114.504 146.982H114.923V146.563H114.504V146.982Z" fill="#EBF3FA"/>
<path d="M115.034 146.982H115.452V146.563H115.034V146.982Z" fill="#EBF3FA"/>
<path d="M115.034 147.527H115.452V147.109H115.034V147.527Z" fill="#EBF3FA"/>
<path d="M115.581 146.982H115.999V146.563H115.581V146.982Z" fill="#EBF3FA"/>
<path d="M113.973 146.982H114.392V146.563H113.973V146.982Z" fill="#EBF3FA"/>
<path d="M113.973 147.527H114.392V147.109H113.973V147.527Z" fill="#EBF3FA"/>
<path d="M113.441 146.982H113.859V146.563H113.441V146.982Z" fill="#EBF3FA"/>
<path d="M114.504 146.441H114.923V146.023H114.504V146.441Z" fill="#EBF3FA"/>
<path d="M114.504 145.939H114.923V145.521H114.504V145.939Z" fill="#EBF3FA"/>
<path d="M113.973 146.441H114.392V146.023H113.973V146.441Z" fill="#EBF3FA"/>
<path d="M115.034 146.441H115.452V146.023H115.034V146.441Z" fill="#EBF3FA"/>
<path d="M114.504 147.527H114.923V147.109H114.504V147.527Z" fill="#EBF3FA"/>
<path d="M114.504 148.079H114.923V147.661H114.504V148.079Z" fill="#EBF3FA"/>
<path d="M125.963 142.478C126.048 142.478 126.117 142.409 126.117 142.324V137.967C126.117 137.882 126.048 137.813 125.963 137.813C125.878 137.813 125.808 137.882 125.808 137.967V142.324C125.808 142.409 125.878 142.478 125.963 142.478Z" fill="#2C3A64"/>
<path d="M114.511 156.307C114.511 156.141 114.377 156.008 114.212 156.008C114.046 156.008 113.912 156.141 113.912 156.307C113.912 156.473 114.046 156.606 114.212 156.606C114.377 156.606 114.511 156.473 114.511 156.307Z" fill="white"/>
<path d="M113.227 156.307C113.227 156.141 113.093 156.008 112.928 156.008C112.762 156.008 112.628 156.141 112.628 156.307C112.628 156.473 112.762 156.606 112.928 156.606C113.093 156.606 113.227 156.473 113.227 156.307Z" fill="white"/>
<path d="M111.956 156.307C111.956 156.141 111.822 156.008 111.657 156.008C111.491 156.008 111.357 156.141 111.357 156.307C111.357 156.473 111.491 156.606 111.657 156.606C111.822 156.606 111.956 156.473 111.956 156.307Z" fill="white"/>
<path d="M145.823 218.92C145.823 221.341 145.147 223.602 143.976 225.531C143.976 225.533 143.973 225.533 143.973 225.536C143.65 226.066 143.288 226.573 142.893 227.048C142.639 227.352 142.375 227.646 142.095 227.925C141.419 228.601 140.67 229.201 139.855 229.711C138.112 230.807 136.085 231.488 133.909 231.629C133.641 231.645 133.368 231.655 133.093 231.655C130.498 231.655 128.085 230.876 126.072 229.542C125.466 229.142 124.898 228.691 124.371 228.196C123.413 227.293 122.595 226.248 121.953 225.088C120.939 223.262 120.362 221.157 120.362 218.92C120.362 215.407 121.788 212.222 124.091 209.918C126.396 207.617 129.578 206.192 133.094 206.192C136.611 206.192 139.792 207.617 142.096 209.918C144.401 212.223 145.825 215.407 145.825 218.92H145.823Z" fill="white"/>
<path d="M128.023 224.301C127.323 223.672 127.576 222.614 127.587 222.568L128.256 222.758L127.922 222.663L128.256 222.756C128.256 222.756 128.107 223.409 128.469 223.734L128.023 224.301Z" fill="#AD9BF5"/>
<path d="M137.436 224.301C138.137 223.672 137.884 222.614 137.872 222.568L137.203 222.758L137.538 222.663L137.203 222.756C137.203 222.756 137.354 223.409 136.991 223.734L137.436 224.301Z" fill="#AD9BF5"/>
<path d="M139.852 224.837V229.711C138.109 230.807 136.083 231.488 133.906 231.629C133.638 231.646 133.365 231.655 133.09 231.655C130.495 231.655 128.082 230.876 126.07 229.542C125.463 229.143 124.896 228.691 124.368 228.196C123.41 227.293 122.592 226.248 121.95 225.088V224.838C121.95 224.191 122.48 223.664 123.127 223.664H138.678C139.325 223.664 139.852 224.191 139.852 224.838V224.837Z" fill="#AD9BF5"/>
<path d="M143.972 224.837V225.536C143.649 226.066 143.287 226.573 142.891 227.048C142.637 227.352 142.373 227.646 142.093 227.926C141.418 228.601 140.668 229.201 139.853 229.711C138.111 230.807 136.084 231.488 133.908 231.629C133.64 231.645 133.366 231.655 133.092 231.655C130.496 231.655 128.083 230.876 126.071 229.542V224.837C126.071 224.19 126.601 223.663 127.248 223.663H142.796C143.443 223.663 143.973 224.19 143.973 224.837H143.972Z" fill="#CEC4F6"/>
<path d="M136.586 222.944H130.902V223.663H136.586V222.944Z" fill="#4C88F2"/>
<path d="M131.938 222.944H128.651V223.663H131.938V222.944Z" fill="#2C3A64"/>
<path d="M129.424 214.748C129.905 214.748 130.295 214.359 130.295 213.878C130.295 213.397 129.905 213.007 129.424 213.007C128.943 213.007 128.553 213.397 128.553 213.878C128.553 214.359 128.943 214.748 129.424 214.748Z" fill="#2C3A64"/>
<path d="M129.424 213.543C129.493 213.543 129.549 213.487 129.549 213.418V209.893C129.549 209.824 129.493 209.768 129.424 209.768C129.355 209.768 129.299 209.824 129.299 209.893V213.418C129.299 213.487 129.355 213.543 129.424 213.543Z" fill="#2C3A64"/>
<path d="M139.553 214.748C140.034 214.748 140.424 214.359 140.424 213.878C140.424 213.397 140.034 213.007 139.553 213.007C139.072 213.007 138.682 213.397 138.682 213.878C138.682 214.359 139.072 214.748 139.553 214.748Z" fill="#2C3A64"/>
<path d="M138.381 213.676H124.603C123.658 213.676 122.893 214.442 122.893 215.386V221.234C122.893 222.179 123.658 222.944 124.603 222.944H138.381C139.326 222.944 140.092 222.179 140.092 221.234V215.386C140.092 214.442 139.326 213.676 138.381 213.676Z" fill="#AD9BF5"/>
<path d="M128.027 213.676H142.014C142.9 213.676 143.62 214.396 143.62 215.282V221.338C143.62 222.225 142.9 222.944 142.014 222.944H128.027C127.141 222.944 126.421 222.225 126.421 221.338V215.282C126.421 214.396 127.141 213.676 128.027 213.676Z" fill="#CEC4F6"/>
<path d="M138.183 219.674H131.146C131.146 219.674 131.863 221.163 135.021 221.163C137.612 221.163 138.183 219.674 138.183 219.674Z" fill="#EBF3FA"/>
<path d="M127.371 218.738H142.195V215.489H127.371V218.738Z" fill="#4C88F2"/>
<path d="M139.321 217.186H139.659V216.848H139.321V217.186Z" fill="#EBF3FA"/>
<path d="M139.749 217.186H140.088V216.848H139.749V217.186Z" fill="#EBF3FA"/>
<path d="M139.749 217.627H140.088V217.289H139.749V217.627Z" fill="#EBF3FA"/>
<path d="M140.192 217.186H140.53V216.848H140.192V217.186Z" fill="#EBF3FA"/>
<path d="M138.89 217.186H139.229V216.848H138.89V217.186Z" fill="#EBF3FA"/>
<path d="M138.89 217.627H139.229V217.289H138.89V217.627Z" fill="#EBF3FA"/>
<path d="M138.461 217.186H138.799V216.848H138.461V217.186Z" fill="#EBF3FA"/>
<path d="M139.321 216.749H139.659V216.41H139.321V216.749Z" fill="#EBF3FA"/>
<path d="M139.321 216.343H139.659V216.004H139.321V216.343Z" fill="#EBF3FA"/>
<path d="M138.89 216.749H139.229V216.41H138.89V216.749Z" fill="#EBF3FA"/>
<path d="M139.749 216.749H140.088V216.41H139.749V216.749Z" fill="#EBF3FA"/>
<path d="M139.321 217.627H139.659V217.289H139.321V217.627Z" fill="#EBF3FA"/>
<path d="M139.321 218.074H139.659V217.735H139.321V218.074Z" fill="#EBF3FA"/>
<path d="M130.283 217.186H130.621V216.848H130.283V217.186Z" fill="#EBF3FA"/>
<path d="M130.711 217.186H131.049V216.848H130.711V217.186Z" fill="#EBF3FA"/>
<path d="M130.711 217.627H131.049V217.289H130.711V217.627Z" fill="#EBF3FA"/>
<path d="M131.154 217.186H131.492V216.848H131.154V217.186Z" fill="#EBF3FA"/>
<path d="M129.853 217.186H130.192V216.848H129.853V217.186Z" fill="#EBF3FA"/>
<path d="M129.853 217.627H130.192V217.289H129.853V217.627Z" fill="#EBF3FA"/>
<path d="M129.423 217.186H129.761V216.848H129.423V217.186Z" fill="#EBF3FA"/>
<path d="M130.283 216.749H130.621V216.41H130.283V216.749Z" fill="#EBF3FA"/>
<path d="M130.283 216.343H130.621V216.004H130.283V216.343Z" fill="#EBF3FA"/>
<path d="M129.853 216.749H130.192V216.41H129.853V216.749Z" fill="#EBF3FA"/>
<path d="M130.711 216.749H131.049V216.41H130.711V216.749Z" fill="#EBF3FA"/>
<path d="M130.283 217.627H130.621V217.289H130.283V217.627Z" fill="#EBF3FA"/>
<path d="M130.283 218.074H130.621V217.735H130.283V218.074Z" fill="#EBF3FA"/>
<path d="M139.553 213.543C139.622 213.543 139.678 213.487 139.678 213.418V209.893C139.678 209.824 139.622 209.768 139.553 209.768C139.484 209.768 139.428 209.824 139.428 209.893V213.418C139.428 213.487 139.484 213.543 139.553 213.543Z" fill="#2C3A64"/>
<path d="M130.288 224.73C130.288 224.596 130.18 224.488 130.046 224.488C129.912 224.488 129.804 224.596 129.804 224.73C129.804 224.864 129.912 224.972 130.046 224.972C130.18 224.972 130.288 224.864 130.288 224.73Z" fill="white"/>
<path d="M129.249 224.73C129.249 224.596 129.141 224.488 129.007 224.488C128.873 224.488 128.765 224.596 128.765 224.73C128.765 224.864 128.873 224.972 129.007 224.972C129.141 224.972 129.249 224.864 129.249 224.73Z" fill="white"/>
<path d="M128.221 224.73C128.221 224.596 128.113 224.488 127.979 224.488C127.845 224.488 127.737 224.596 127.737 224.73C127.737 224.864 127.845 224.972 127.979 224.972C128.113 224.972 128.221 224.864 128.221 224.73Z" fill="white"/>
<path d="M158.324 146.205H143.069V148.182H158.324V146.205Z" fill="#CBE1FD"/>
<path d="M162.083 150.161H143.069V152.138H162.083V150.161Z" fill="#CBE1FD"/>
<path d="M177.6 150.161H163.598V152.138H177.6V150.161Z" fill="#CBE1FD"/>
<path d="M157.071 154.032H143.069V156.009H157.071V154.032Z" fill="#CBE1FD"/>
<path d="M170.133 146.205H159.964V148.182H170.133V146.205Z" fill="#CBE1FD"/>
<path d="M192.898 146.205H172.328V148.182H192.898V146.205Z" fill="#CBE1FD"/>
<path d="M164.819 136.411H143.221V139.212H164.819V136.411Z" fill="#CBE1FD"/>
<path d="M197.045 136.411H167.205V139.212H197.045V136.411Z" fill="#CBE1FD"/>
<path d="M155.122 187.506H145.091V188.806H155.122V187.506Z" fill="white"/>
<path d="M157.594 190.108H145.091V191.408H157.594V190.108Z" fill="white"/>
<path d="M167.796 190.108H158.59V191.408H167.796V190.108Z" fill="white"/>
<path d="M154.297 192.653H145.091V193.953H154.297V192.653Z" fill="white"/>
<path d="M162.887 187.506H156.2V188.806H162.887V187.506Z" fill="white"/>
<path d="M177.853 187.506H164.329V188.806H177.853V187.506Z" fill="white"/>
<path d="M159.392 181.068H145.191V182.91H159.392V181.068Z" fill="white"/>
<path d="M180.582 181.068H160.961V182.91H180.582V181.068Z" fill="white"/>
<path d="M169.376 218.923H159.346V220.223H169.376V218.923Z" fill="#CBE1FD"/>
<path d="M171.849 221.525H159.346V222.825H171.849V221.525Z" fill="#CBE1FD"/>
<path d="M182.05 221.525H172.844V222.825H182.05V221.525Z" fill="#CBE1FD"/>
<path d="M168.552 224.07H159.346V225.37H168.552V224.07Z" fill="#CBE1FD"/>
<path d="M177.142 218.923H170.455V220.223H177.142V218.923Z" fill="#CBE1FD"/>
<path d="M192.109 218.923H178.585V220.223H192.109V218.923Z" fill="#CBE1FD"/>
<path d="M173.649 212.484H159.447V214.327H173.649V212.484Z" fill="#CBE1FD"/>
<path d="M194.836 212.484H175.216V214.327H194.836V212.484Z" fill="#CBE1FD"/>
<path d="M231.875 49.8016L230.56 50.7444L229.239 49.8112C229.532 49.3993 230.016 49.1274 230.56 49.1274C231.104 49.1274 231.582 49.3929 231.875 49.8016Z" fill="#2B478B"/>
<path d="M230.56 46.8284C229.239 46.8284 228.07 47.4864 227.362 48.4903L228.197 49.076C228.721 48.3327 229.587 47.85 230.56 47.85C231.533 47.85 232.386 48.3262 232.911 49.0599L233.742 48.4646C233.031 47.4735 231.87 46.83 230.562 46.83L230.56 46.8284Z" fill="#2B478B"/>
<path d="M230.56 42.4586C227.764 42.4586 225.291 43.8487 223.793 45.974L224.628 46.5597C225.943 44.6998 228.113 43.4803 230.562 43.4803C233.01 43.4803 235.145 44.6789 236.465 46.5146L237.292 45.9193C235.789 43.8246 233.334 42.4586 230.562 42.4586H230.56Z" fill="#2B478B"/>
<path d="M230.56 44.8495C228.572 44.8495 226.807 45.8341 225.733 47.3433L226.568 47.9289C227.458 46.6852 228.914 45.8711 230.56 45.8711C232.206 45.8711 233.64 46.6708 234.531 47.8983L235.358 47.3063C234.281 45.818 232.531 44.8511 230.559 44.8511L230.56 44.8495Z" fill="#2B478B"/>
<path d="M1.0215 259.245H413.097C413.383 259.245 413.616 259.478 413.616 259.765V260.079C413.616 260.365 413.383 260.598 413.097 260.598H1.0215C0.73512 260.598 0.501831 260.365 0.501831 260.079V259.765C0.501831 259.478 0.73512 259.245 1.0215 259.245Z" fill="#2E3552"/>
</svg>
