<svg width="262" height="266" viewBox="0 0 262 266" fill="none" xmlns="http://www.w3.org/2000/svg">
<g clip-path="url(#clip0_11_5420)">
<path d="M246.188 89.9312V92.363" stroke="#16151C" stroke-opacity="0.1" stroke-width="1.24069" stroke-linecap="round" stroke-linejoin="round"/>
<path d="M246.188 95.0987V97.5305" stroke="#16151C" stroke-opacity="0.1" stroke-width="1.24069" stroke-linecap="round" stroke-linejoin="round"/>
<path d="M242.392 93.7339H244.824" stroke="#16151C" stroke-opacity="0.1" stroke-width="1.24069" stroke-linecap="round" stroke-linejoin="round"/>
<path d="M247.559 93.7339H249.991" stroke="#16151C" stroke-opacity="0.1" stroke-width="1.24069" stroke-linecap="round" stroke-linejoin="round"/>
<path d="M10.377 199.081V201.512" stroke="#16151C" stroke-opacity="0.1" stroke-width="1.24069" stroke-linecap="round" stroke-linejoin="round"/>
<path d="M10.377 204.248V206.68" stroke="#16151C" stroke-opacity="0.1" stroke-width="1.24069" stroke-linecap="round" stroke-linejoin="round"/>
<path d="M6.58057 202.877H9.01231" stroke="#16151C" stroke-opacity="0.1" stroke-width="1.24069" stroke-linecap="round" stroke-linejoin="round"/>
<path d="M11.748 202.877H14.1798" stroke="#16151C" stroke-opacity="0.1" stroke-width="1.24069" stroke-linecap="round" stroke-linejoin="round"/>
<path d="M144.613 5.45901V7.89076" stroke="#16151C" stroke-opacity="0.1" stroke-width="1.24069" stroke-linecap="round" stroke-linejoin="round"/>
<path d="M144.613 10.6265V13.0583" stroke="#16151C" stroke-opacity="0.1" stroke-width="1.24069" stroke-linecap="round" stroke-linejoin="round"/>
<path d="M140.817 9.25549H143.249" stroke="#16151C" stroke-opacity="0.1" stroke-width="1.24069" stroke-linecap="round" stroke-linejoin="round"/>
<path d="M145.984 9.25549H148.416" stroke="#16151C" stroke-opacity="0.1" stroke-width="1.24069" stroke-linecap="round" stroke-linejoin="round"/>
<path d="M237.584 119.137H219.78V137.226" stroke="#16151C" stroke-opacity="0.1" stroke-width="1.24069" stroke-linecap="round" stroke-linejoin="round"/>
<path d="M259.228 170.322V154.205H233.142" stroke="#16151C" stroke-opacity="0.1" stroke-width="1.24069" stroke-linecap="round" stroke-linejoin="round"/>
<path d="M256.3 126.079V144.782H233.142" stroke="#16151C" stroke-opacity="0.1" stroke-width="1.24069" stroke-linecap="round" stroke-linejoin="round"/>
<path d="M173.118 170.911V154.205H199.203" stroke="#16151C" stroke-opacity="0.1" stroke-width="1.24069" stroke-linecap="round" stroke-linejoin="round"/>
<path d="M176.114 130.93V145.756H199.272" stroke="#16151C" stroke-opacity="0.1" stroke-width="1.24069" stroke-linecap="round" stroke-linejoin="round"/>
<path d="M191.437 124.937H209.241V143.026" stroke="#16151C" stroke-opacity="0.1" stroke-width="1.24069" stroke-linecap="round" stroke-linejoin="round"/>
<path d="M215.45 163.647V178.46" stroke="#16151C" stroke-opacity="0.1" stroke-width="1.24069" stroke-linecap="round" stroke-linejoin="round"/>
<path d="M237.218 119.137C237.218 117.927 238.198 116.947 239.408 116.947C240.617 116.947 241.598 117.927 241.598 119.137C241.598 120.347 240.617 121.327 239.408 121.327C238.198 121.327 237.218 120.347 237.218 119.137Z" fill="#16151C" fill-opacity="0.1"/>
<path d="M189.247 124.937C189.247 123.728 190.227 122.747 191.437 122.747C192.646 122.747 193.626 123.728 193.626 124.937C193.626 126.147 192.646 127.127 191.437 127.127C190.227 127.127 189.247 126.147 189.247 124.937Z" fill="#16151C" fill-opacity="0.1"/>
<path d="M173.924 130.93C173.924 129.72 174.904 128.74 176.114 128.74C177.324 128.74 178.304 129.72 178.304 130.93C178.304 132.139 177.324 133.12 176.114 133.12C174.904 133.12 173.924 132.139 173.924 130.93Z" fill="#16151C" fill-opacity="0.1"/>
<path d="M170.971 170.322C170.971 169.112 171.952 168.132 173.161 168.132C174.371 168.132 175.351 169.112 175.351 170.322C175.351 171.531 174.371 172.511 173.161 172.511C171.952 172.511 170.971 171.531 170.971 170.322Z" fill="#16151C" fill-opacity="0.1"/>
<path d="M257.038 170.322C257.038 169.112 258.018 168.132 259.228 168.132C260.438 168.132 261.418 169.112 261.418 170.322C261.418 171.531 260.438 172.511 259.228 172.511C258.018 172.511 257.038 171.531 257.038 170.322Z" fill="#16151C" fill-opacity="0.1"/>
<path d="M254.122 125.992C254.122 124.782 255.103 123.802 256.312 123.802C257.522 123.802 258.502 124.782 258.502 125.992C258.502 127.201 257.522 128.182 256.312 128.182C255.103 128.182 254.122 127.201 254.122 125.992Z" fill="#16151C" fill-opacity="0.1"/>
<path d="M195.233 139.329C195.233 137.177 196.977 135.427 199.135 135.427H231.759C233.912 135.427 235.661 137.177 235.661 139.329V163.287C235.661 165.439 233.912 167.189 231.759 167.189H199.135C196.983 167.189 195.233 165.446 195.233 163.287V139.329Z" fill="#A3D139" fill-opacity="0.05"/>
<path d="M214.762 154.912H209.607L208.627 157.853H205.5L210.81 143.591H213.534L218.875 157.853H215.748L214.756 154.912H214.762ZM210.401 152.53H213.968L212.175 147.189L210.401 152.53Z" fill="#CEC4F7"/>
<path d="M223.335 157.846H220.394V143.585H223.335V157.846Z" fill="#CEC4F7"/>
<path d="M179.874 178.461C177.771 178.461 176.065 180.166 176.065 182.269V185.774H254.824V182.269C254.824 180.166 253.137 178.461 251.034 178.461H179.874Z" fill="#16151C" fill-opacity="0.1"/>
<path d="M176.065 182.096C176.065 180.092 177.69 178.461 179.7 178.461H251.201C253.205 178.461 254.836 180.086 254.836 182.096V216.072C254.836 218.076 253.211 219.707 251.201 219.707H179.7C177.697 219.707 176.065 218.082 176.065 216.072V182.096Z" stroke="#16151C" stroke-opacity="0.1" stroke-width="1.24069" stroke-linecap="round" stroke-linejoin="round"/>
<path d="M183.1 202.865L187.479 200.321L192.076 202.828L198.968 198.839L204.57 203.343V210.632L183.1 210.731V202.859V202.865Z" stroke="#CEC4F7" stroke-width="1.24069" stroke-linecap="round" stroke-linejoin="round"/>
<path d="M193.968 205.805L205.066 199.689L205.109 210.638L203.875 212.034H183.993L182.827 210.743V200.675L193.968 205.811V205.805Z" fill="#CEC4F7"/>
<path d="M203.298 192.418C204.297 192.418 205.103 193.305 205.103 194.397V210.048C205.103 211.14 204.29 212.027 203.298 212.027H184.632C183.633 212.027 182.827 211.14 182.827 210.048V194.397C182.827 193.305 183.633 192.418 184.632 192.418H203.298Z" stroke="#CEC4F7" stroke-width="1.24069" stroke-linecap="round" stroke-linejoin="round"/>
<path d="M190.147 195.917C190.916 195.917 191.536 196.568 191.536 197.375C191.536 198.181 190.916 198.833 190.147 198.833C189.377 198.833 188.757 198.181 188.757 197.375C188.757 196.568 189.377 195.917 190.147 195.917Z" fill="#CEC4F7"/>
<path d="M211.735 196.779H246.046" stroke="#16151C" stroke-opacity="0.1" stroke-width="1.24069" stroke-linecap="round" stroke-linejoin="round"/>
<path d="M211.735 202.226H246.046" stroke="#16151C" stroke-opacity="0.1" stroke-width="1.24069" stroke-linecap="round" stroke-linejoin="round"/>
<path d="M211.735 207.673H246.046" stroke="#16151C" stroke-opacity="0.1" stroke-width="1.24069" stroke-linecap="round" stroke-linejoin="round"/>
<path d="M185.457 182.015C185.457 181.457 185.91 181.004 186.468 181.004C187.026 181.004 187.479 181.457 187.479 182.015C187.479 182.573 187.026 183.026 186.468 183.026C185.91 183.026 185.457 182.573 185.457 182.015Z" fill="white"/>
<path d="M189.105 182.015C189.105 181.457 189.557 181.004 190.116 181.004C190.674 181.004 191.127 181.457 191.127 182.015C191.127 182.573 190.674 183.026 190.116 183.026C189.557 183.026 189.105 182.573 189.105 182.015Z" fill="white"/>
<path d="M181.816 182.015C181.816 181.457 182.268 181.004 182.827 181.004C183.385 181.004 183.838 181.457 183.838 182.015C183.838 182.573 183.385 183.026 182.827 183.026C182.268 183.026 181.816 182.573 181.816 182.015Z" fill="white"/>
<path d="M173.273 24.4167C173.273 10.9305 184.204 0 197.69 0C211.176 0 222.107 10.9305 222.107 24.4167C222.107 37.903 211.176 48.8335 197.69 48.8335C184.204 48.8335 173.273 37.903 173.273 24.4167Z" fill="#CEC4F7"/>
<path d="M197.814 15.8064C192.331 15.8064 187.839 19.8014 187.839 24.7642C187.839 28.5359 190.488 31.7927 194.297 33.0954V35.2666C194.297 35.6264 194.589 35.918 194.948 35.918C194.973 35.918 194.986 35.8993 195.011 35.8993C195.029 35.8993 195.035 35.918 195.048 35.918H200.755C201.115 35.918 201.406 35.6264 201.406 35.2666V33.0706C205.172 31.743 207.765 28.4986 207.765 24.758C207.765 19.789 203.292 15.8002 197.808 15.8002L197.814 15.8064Z" fill="white"/>
<path d="M200.147 39.8137L195.445 39.8881C195.922 40.5146 196.636 40.9985 197.752 41.0295C198.894 41.0543 199.644 40.5146 200.147 39.8137Z" fill="#16151C" fill-opacity="0.1"/>
<path d="M200.99 36.4452L194.588 36.4824C194.588 36.4824 194.638 37.0345 194.65 37.3695L200.916 37.3199C200.928 36.9973 200.99 36.4452 200.99 36.4452Z" fill="#16151C" fill-opacity="0.1"/>
<path d="M200.867 38.0271L194.694 38.0519C194.7 38.1015 194.688 38.0891 194.694 38.1387C194.756 38.4799 194.868 38.8397 195.023 39.1871L200.581 39.1003C200.712 38.7839 200.805 38.4737 200.854 38.1635C200.867 38.0891 200.854 38.0953 200.867 38.0271Z" fill="#16151C" fill-opacity="0.1"/>
<path d="M201.735 25.248C201.604 25.2232 201.468 25.248 201.35 25.3286L197.752 28.0023L194.241 25.4899C194.123 25.4093 193.987 25.3721 193.856 25.3907C193.726 25.4093 193.602 25.4837 193.521 25.6016C193.354 25.8311 193.403 26.1599 193.633 26.3274L197.237 28.8832L197.157 34.2926C197.157 34.578 197.386 34.8075 197.671 34.8075C197.957 34.8075 198.186 34.5904 198.186 34.305L198.267 28.877L201.927 26.1661C202.163 26.0048 202.231 25.6946 202.07 25.4589C201.989 25.341 201.859 25.2604 201.728 25.2356L201.735 25.248Z" fill="#16151C" fill-opacity="0.1"/>
<path d="M197.969 22.2952C197.343 22.2456 196.822 22.5868 196.381 23.1637C196.084 22.7481 195.711 22.4565 195.209 22.4317C194.62 22.4069 194.192 22.7232 193.863 23.2257C193.695 23.4801 193.571 23.7406 193.515 23.9205C193.441 24.1562 193.602 24.4044 193.863 24.4726C194.123 24.5408 194.396 24.4106 194.471 24.1748C194.477 24.15 194.483 24.1066 194.514 24.0384C194.564 23.9267 194.62 23.8088 194.688 23.7034C194.855 23.449 195.023 23.3188 195.166 23.325C195.314 23.3312 195.482 23.4615 195.643 23.722C195.711 23.8337 195.767 23.9515 195.817 24.0756C195.848 24.15 195.873 24.2059 195.879 24.2369C195.997 24.6525 196.617 24.6959 196.791 24.2989C196.803 24.2679 196.853 24.2059 196.896 24.119C196.977 23.9701 197.058 23.8212 197.157 23.6848C197.417 23.3374 197.697 23.1575 197.876 23.1699C198.081 23.1885 198.286 23.3436 198.484 23.6227C198.571 23.7406 198.639 23.8833 198.701 24.0198C198.739 24.1004 198.776 24.15 198.788 24.181C198.931 24.5905 199.576 24.5905 199.725 24.181C199.731 24.1562 199.756 24.1128 199.787 24.0446C199.843 23.9267 199.905 23.815 199.986 23.7096C200.178 23.4428 200.364 23.3002 200.531 23.3126C200.699 23.325 200.829 23.4304 200.947 23.6476C200.997 23.7468 201.046 23.8523 201.077 23.9639C201.096 24.0322 201.096 24.0818 201.096 24.1004C201.133 24.3423 201.369 24.5284 201.642 24.4974C201.909 24.4664 202.113 24.2245 202.076 23.9825C202.045 23.7902 201.983 23.5235 201.834 23.2505C201.58 22.7729 201.17 22.4565 200.594 22.4193C200.041 22.3821 199.613 22.6612 199.266 23.0892C198.925 22.6364 198.503 22.3448 197.963 22.2952H197.969Z" fill="#A3D139" fill-opacity="0.05"/>
<path d="M197.808 7.80396V13.3188" stroke="white" stroke-width="1.24069" stroke-linecap="round" stroke-linejoin="round"/>
<path d="M209.502 11.1414L206.127 15.5024" stroke="white" stroke-width="1.24069" stroke-linecap="round" stroke-linejoin="round"/>
<path d="M215.755 19.7331L210.327 20.7195" stroke="white" stroke-width="1.24069" stroke-linecap="round" stroke-linejoin="round"/>
<path d="M179.626 20.2294L185.054 21.2157" stroke="white" stroke-width="1.24069" stroke-linecap="round" stroke-linejoin="round"/>
<path d="M185.122 11.1414L188.497 15.5024" stroke="white" stroke-width="1.24069" stroke-linecap="round" stroke-linejoin="round"/>
<path d="M1.1958 31.3832H109.557" stroke="#A3D139" stroke-opacity="0.05" stroke-width="1.24069" stroke-linecap="round" stroke-linejoin="round"/>
<path d="M1.29504 57.4252H109.657" stroke="#A3D139" stroke-opacity="0.05" stroke-width="1.24069" stroke-linecap="round" stroke-linejoin="round"/>
<path d="M74.3221 6.03589V81.8481" stroke="#A3D139" stroke-opacity="0.05" stroke-width="1.24069" stroke-linecap="round" stroke-linejoin="round"/>
<path d="M37.5231 6.40808V82.2203" stroke="#A3D139" stroke-opacity="0.05" stroke-width="1.24069" stroke-linecap="round" stroke-linejoin="round"/>
<path d="M1.29504 6.40808H109.564V82.2203H1.29504V6.40808Z" stroke="#A3D139" stroke-opacity="0.05" stroke-width="1.24069" stroke-linecap="round" stroke-linejoin="round"/>
<path d="M6.58032 64.8632L21.5678 42.9774L22.275 57.9091L44.7873 37.3757L51.6235 46.9414L72.1321 26.5259L81.6357 38.0519L91.9831 32.748L102.889 16.7245" stroke="#16151C" stroke-opacity="0.1" stroke-width="1.24069" stroke-linecap="round" stroke-linejoin="round" stroke-dasharray="3.1 3.72"/>
<path d="M6.58032 68.3742L28.6398 42.7665L39.7191 51.017L58.8133 20.8435L65.6495 41.3521L86.6295 20.4899L102.895 24.2616" stroke="#CEC4F7" stroke-width="1.24069" stroke-linecap="round" stroke-linejoin="round"/>
<path d="M6.58032 70.4152L26.7911 59.2986L40.7861 57.9338L56.9336 35.0245L67.8703 48.548L86.2883 27.4005L102.889 27.2578" stroke="#16151C" stroke-opacity="0.1" stroke-width="1.24069" stroke-linecap="round" stroke-linejoin="round"/>
<path d="M24.9054 165.607L26.8967 168.002C26.4439 168.988 26.0779 169.999 25.8111 171.035L22.697 171.686L23.1561 180.657L26.1523 181.041C26.6114 182.431 27.2503 183.758 28.0506 185.024L26.3881 187.747L33.2367 193.547L35.5878 191.606C36.785 192.164 38.0195 192.586 39.2912 192.859L40.0977 195.849L49.0492 195.098L49.2539 192.176C50.414 191.748 51.5306 191.196 52.5976 190.526L55.2465 192.201L61.1583 185.452L59.2105 183.02C59.7067 181.959 60.1038 180.867 60.3767 179.751L63.466 179.031L63.007 170.061L59.9735 169.751C59.5082 168.368 58.8631 167.034 58.0504 165.781L59.6323 163.045L52.7837 157.245L50.4698 159.248C49.2912 158.709 48.0753 158.299 46.8284 158.033L46.0592 154.875L37.1076 155.626L36.8036 158.771C35.6374 159.205 34.527 159.77 33.46 160.452L30.8111 158.858L24.8992 165.607H24.9054ZM40.5567 173.25C41.7788 171.854 43.9066 171.711 45.3086 172.939C46.7043 174.162 46.8346 176.283 45.6125 177.679C44.3904 179.075 42.2689 179.224 40.8731 178.001C39.4773 176.779 39.3346 174.652 40.5629 173.25H40.5567Z" fill="#CEC4F7"/>
<path d="M2.79032 134.398L4.13646 136.017C3.82629 136.687 3.57815 137.369 3.40446 138.07L1.29529 138.51L1.60546 144.584L3.63398 144.844C3.94416 145.787 4.3784 146.687 4.9181 147.536L3.78907 149.379L8.42304 153.306L10.0111 151.99C10.8238 152.369 11.6612 152.654 12.5173 152.84L13.0632 154.863L19.124 154.354L19.2604 152.375C20.0483 152.084 20.8051 151.711 21.5247 151.258L23.3175 152.394L27.3249 147.822L26.0098 146.178C26.3448 145.458 26.6115 144.72 26.7976 143.963L28.8882 143.473L28.578 137.4L26.5247 137.189C26.2083 136.252 25.7741 135.353 25.222 134.503L26.2889 132.648L21.655 128.721L20.0917 130.08C19.2915 129.714 18.4726 129.435 17.6289 129.255L17.1079 127.115L11.0471 127.623L10.8424 129.751C10.0545 130.049 9.29772 130.427 8.57812 130.893L6.78533 129.813L2.77791 134.385L2.79032 134.398ZM13.3858 139.571C14.2171 138.628 15.6562 138.529 16.5992 139.36C17.5421 140.192 17.6351 141.625 16.8039 142.574C15.9726 143.523 14.5396 143.622 13.5905 142.791C12.6414 141.959 12.5483 140.52 13.3796 139.571H13.3858Z" stroke="#16151C" stroke-opacity="0.1" stroke-width="1.24069" stroke-linecap="round" stroke-linejoin="round"/>
<path d="M97.9818 49.0072C97.9818 49.0072 89.0426 49.8136 88.5029 55.2603C88.1927 58.3992 89.6878 61.3582 93.658 63.1758C99.4582 65.8309 99.0674 72.1522 99.0674 72.1522L96.2696 71.7118C96.2696 71.7118 96.2696 68.0766 91.4495 65.8309C85.761 63.1758 83.199 61.0481 83.199 56.1846C83.199 44.8943 98.0748 44.7702 98.0748 44.7702" stroke="#CEC4F7" stroke-width="1.24069" stroke-linecap="round" stroke-linejoin="round"/>
<path d="M79.5575 75.9425C79.5575 72.816 82.0885 70.285 85.215 70.285H103.881C107.008 70.285 109.539 72.816 109.539 75.9425V89.2489C109.539 92.3754 107.008 94.9064 103.881 94.9064H85.215C82.0885 94.9064 79.5575 92.3754 79.5575 89.2489V75.9425Z" fill="#16151C" fill-opacity="0.1"/>
<path d="M123.664 76.11C123.664 72.8966 126.27 70.285 129.489 70.285H146.009C149.222 70.285 151.834 72.8904 151.834 76.11V89.0814C151.834 92.2948 149.229 94.9064 146.009 94.9064H129.489C126.276 94.9064 123.664 92.301 123.664 89.0814V76.11Z" fill="#16151C" fill-opacity="0.1"/>
<path d="M181.095 90.0367L185.643 110.148" stroke="#16151C" stroke-opacity="0.1" stroke-width="1.24069" stroke-linecap="round" stroke-linejoin="round"/>
<path d="M174.886 85.4648L166.418 104.36" stroke="#16151C" stroke-opacity="0.1" stroke-width="1.24069" stroke-linecap="round" stroke-linejoin="round"/>
<path d="M164.694 78.3123L157.008 96.6993" stroke="#16151C" stroke-opacity="0.1" stroke-width="1.24069" stroke-linecap="round" stroke-linejoin="round"/>
<path d="M192.479 75.254L211.629 92.1087" stroke="#16151C" stroke-opacity="0.1" stroke-width="1.24069" stroke-linecap="round" stroke-linejoin="round"/>
<path d="M185.643 84.0938L202.907 103.114" stroke="#16151C" stroke-opacity="0.1" stroke-width="1.24069" stroke-linecap="round" stroke-linejoin="round"/>
<path d="M148.348 71.7118C148.348 71.7118 151.828 71.7118 155.668 73.5232C163.633 77.2824 181.133 90.2476 181.133 90.2476L198.037 68.0765L219.6 82.239C219.6 82.239 196.486 113.56 188.05 115.663C180.022 117.661 148.354 89.5715 148.354 89.5715V71.7055L148.348 71.7118Z" stroke="#16151C" stroke-opacity="0.1" stroke-width="1.24069" stroke-linecap="round" stroke-linejoin="round"/>
<path d="M174.917 111.594C174.445 107.791 179.303 104.063 185.76 103.262C192.218 102.462 197.839 104.9 198.31 108.703C198.781 112.506 193.924 116.234 187.466 117.034C181.009 117.834 175.388 115.396 174.917 111.594Z" fill="#16151C" fill-opacity="0.1"/>
<path d="M132.281 42.3013C132.281 39.9936 134.154 38.1202 136.462 38.1202H136.859C139.166 38.1202 141.04 39.9936 141.04 42.3013V51.0791C141.04 53.3868 139.166 55.2603 136.859 55.2603H136.462C134.154 55.2603 132.281 53.3868 132.281 51.0791V42.3013Z" fill="#16151C" fill-opacity="0.1"/>
<path d="M120.978 19.7766L119.868 32.0966" stroke="#16151C" stroke-opacity="0.1" stroke-width="1.24069" stroke-linecap="round" stroke-linejoin="round"/>
<path d="M118.993 18.7096C118.993 17.6116 119.88 16.7245 120.978 16.7245C122.076 16.7245 122.963 17.6116 122.963 18.7096C122.963 19.8076 122.076 20.6947 120.978 20.6947C119.88 20.6947 118.993 19.8076 118.993 18.7096Z" fill="#16151C" fill-opacity="0.1"/>
<path d="M127.045 190.439L148.348 188.951" stroke="#16151C" stroke-opacity="0.1" stroke-width="1.24069" stroke-linecap="round" stroke-linejoin="round"/>
<path d="M126.127 174.304L150.575 170.75" stroke="#16151C" stroke-opacity="0.1" stroke-width="1.24069" stroke-linecap="round" stroke-linejoin="round"/>
<path d="M124.923 207.642L153.943 206.947" stroke="#16151C" stroke-opacity="0.1" stroke-width="1.24069" stroke-linecap="round" stroke-linejoin="round"/>
<path d="M124.781 222.102L154.83 221.407" stroke="#16151C" stroke-opacity="0.1" stroke-width="1.24069" stroke-linecap="round" stroke-linejoin="round"/>
<path d="M77.3927 194.856L99.8181 210.867" stroke="#16151C" stroke-opacity="0.1" stroke-width="1.24069" stroke-linecap="round" stroke-linejoin="round"/>
<path d="M68.1558 204.751L91.5179 222.716" stroke="#16151C" stroke-opacity="0.1" stroke-width="1.24069" stroke-linecap="round" stroke-linejoin="round"/>
<path d="M123.664 235.607L154.83 235.774" stroke="#16151C" stroke-opacity="0.1" stroke-width="1.24069" stroke-linecap="round" stroke-linejoin="round"/>
<path d="M60.4944 213.795L82.5104 232.672" stroke="#16151C" stroke-opacity="0.1" stroke-width="1.24069" stroke-linecap="round" stroke-linejoin="round"/>
<path d="M124.923 160.657L147.975 157.648" stroke="#16151C" stroke-opacity="0.1" stroke-width="1.24069" stroke-linecap="round" stroke-linejoin="round"/>
<path d="M89.9734 169.602L113.795 172.53" stroke="#16151C" stroke-opacity="0.1" stroke-width="1.24069" stroke-linecap="round" stroke-linejoin="round"/>
<path d="M92.1318 157.35L115.147 159.149" stroke="#16151C" stroke-opacity="0.1" stroke-width="1.24069" stroke-linecap="round" stroke-linejoin="round"/>
<path d="M86.3379 184.118L106.437 191.277" stroke="#16151C" stroke-opacity="0.1" stroke-width="1.24069" stroke-linecap="round" stroke-linejoin="round"/>
<path d="M130.445 186.221C130.445 185.408 131.102 184.745 131.921 184.745C132.74 184.745 133.397 185.402 133.397 186.221C133.397 187.04 132.74 187.697 131.921 187.697C131.102 187.697 130.445 187.04 130.445 186.221Z" fill="#16151C" fill-opacity="0.1"/>
<path d="M138.676 185.594C138.676 184.782 139.334 184.118 140.153 184.118C140.972 184.118 141.629 184.776 141.629 185.594C141.629 186.413 140.972 187.071 140.153 187.071C139.334 187.071 138.676 186.413 138.676 185.594Z" fill="#16151C" fill-opacity="0.1"/>
<path d="M129.948 194.075C129.948 193.262 130.606 192.598 131.425 192.598C132.244 192.598 132.901 193.256 132.901 194.075C132.901 194.893 132.244 195.551 131.425 195.551C130.606 195.551 129.948 194.893 129.948 194.075Z" fill="#16151C" fill-opacity="0.1"/>
<path d="M138.676 193.448C138.676 192.635 139.334 191.972 140.153 191.972C140.972 191.972 141.629 192.629 141.629 193.448C141.629 194.267 140.972 194.924 140.153 194.924C139.334 194.924 138.676 194.267 138.676 193.448Z" fill="#16151C" fill-opacity="0.1"/>
<path d="M90.1037 181.432C90.4325 180.688 91.3072 180.353 92.0516 180.681C92.796 181.01 93.131 181.885 92.8022 182.629C92.4734 183.374 91.5988 183.709 90.8543 183.38C90.1099 183.051 89.7749 182.176 90.1037 181.432Z" fill="#16151C" fill-opacity="0.1"/>
<path d="M96.6357 183.51C96.9645 182.766 97.8392 182.431 98.5836 182.76C99.328 183.088 99.663 183.963 99.3342 184.707C99.0054 185.452 98.1307 185.787 97.3863 185.458C96.6419 185.129 96.3069 184.255 96.6357 183.51Z" fill="#16151C" fill-opacity="0.1"/>
<path d="M86.4622 188.405C86.791 187.66 87.6657 187.325 88.4101 187.654C89.1545 187.983 89.4895 188.858 89.1607 189.602C88.832 190.346 87.9573 190.681 87.2129 190.353C86.4685 190.024 86.1335 189.149 86.4622 188.405Z" fill="#16151C" fill-opacity="0.1"/>
<path d="M93.4471 190.688C93.7759 189.943 94.6506 189.608 95.395 189.937C96.1394 190.266 96.4744 191.14 96.1456 191.885C95.8168 192.629 94.9421 192.964 94.1977 192.635C93.4533 192.307 93.1183 191.432 93.4471 190.688Z" fill="#16151C" fill-opacity="0.1"/>
<path d="M94.5516 144.453C94.5516 144.453 88.7762 179.856 86.5244 184.112C82.579 191.568 47.1946 226.947 47.1946 226.947C47.1946 226.947 85.6373 266.891 89.0368 264.527C92.4363 262.164 79.5579 236.295 79.5579 236.295C79.5579 236.295 105.612 206.177 109.452 193.752C115.097 175.489 115.147 144.459 115.147 144.459H94.5454L94.5516 144.453Z" stroke="#16151C" stroke-opacity="0.1" stroke-width="1.24069" stroke-linecap="round" stroke-linejoin="round"/>
<path d="M122.963 141.128C122.963 141.128 127.709 185.675 127.039 190.439C125.873 198.795 122.318 256.667 122.318 256.667C122.318 256.667 181.58 260.259 183.968 256.878C186.356 253.497 155.327 240.948 155.327 240.948C155.327 240.948 153.67 198.101 153.05 185.104C152.138 166.01 140.519 134.826 140.519 134.826L122.957 141.122L122.963 141.128Z" stroke="#16151C" stroke-opacity="0.1" stroke-width="1.24069" stroke-linecap="round" stroke-linejoin="round"/>
<path d="M161.319 239.043C161.753 238.646 162.429 238.671 162.826 239.112L164.123 240.526C164.52 240.96 164.489 241.636 164.055 242.033L155.848 249.558C155.413 249.955 154.737 249.924 154.34 249.49L153.044 248.076C152.647 247.641 152.678 246.965 153.112 246.568L161.319 239.043Z" fill="#CEC4F7"/>
<path d="M167.578 241.382C168.012 240.985 168.688 241.01 169.085 241.45L170.382 242.865C170.779 243.299 170.754 243.975 170.314 244.372L162.107 251.897C161.672 252.294 160.996 252.263 160.599 251.829L159.303 250.414C158.906 249.98 158.937 249.304 159.371 248.907L167.578 241.382Z" fill="#CEC4F7"/>
<path d="M86.2386 238.411C86.828 238.448 87.2746 238.956 87.2374 239.546L87.1133 241.463C87.0761 242.052 86.5674 242.499 85.9781 242.461L74.8677 241.748C74.2784 241.711 73.8318 241.202 73.869 240.613L73.9931 238.696C74.0303 238.107 74.539 237.66 75.1283 237.697L86.2386 238.411Z" fill="#CEC4F7"/>
<path d="M88.8876 244.552C89.4769 244.589 89.9235 245.098 89.8863 245.687L89.7623 247.604C89.725 248.193 89.2164 248.64 88.627 248.603L77.5167 247.889C76.9273 247.852 76.4807 247.344 76.5179 246.754L76.642 244.837C76.6792 244.248 77.1879 243.801 77.7772 243.839L88.8876 244.552Z" fill="#CEC4F7"/>
<path d="M143 190.439C143 182.536 146.952 176.128 151.834 176.128C156.716 176.128 160.668 182.536 160.668 190.439C160.668 198.343 156.716 204.751 151.834 204.751C146.952 204.751 143 198.343 143 190.439Z" fill="#16151C" fill-opacity="0.1"/>
<path d="M99.5388 187.766C102.498 180.439 108.565 175.979 113.087 177.803C117.609 179.633 118.875 187.052 115.916 194.385C112.957 201.711 106.89 206.171 102.368 204.347C97.8453 202.517 96.5798 195.098 99.5388 187.766Z" fill="#16151C" fill-opacity="0.1"/>
<path d="M148.348 189.695C148.348 185.334 150.531 181.798 153.217 181.798C155.903 181.798 158.087 185.334 158.087 189.695C158.087 194.056 155.903 197.592 153.217 197.592C150.531 197.592 148.348 194.056 148.348 189.695Z" stroke="#CEC4F7" stroke-width="1.24069" stroke-linecap="round" stroke-linejoin="round"/>
<path d="M105.215 189.447C106.778 185.576 109.986 183.219 112.38 184.18C114.769 185.148 115.439 189.068 113.875 192.939C112.312 196.81 109.105 199.168 106.716 198.206C104.328 197.238 103.658 193.318 105.221 189.447H105.215Z" stroke="#CEC4F7" stroke-width="1.24069" stroke-linecap="round" stroke-linejoin="round"/>
<path d="M118.422 65.8557C95.9222 65.8557 85.184 88.5107 83.7944 117.189H153.05C151.66 88.5169 143.558 65.0741 118.422 65.8557Z" fill="#CEC4F7"/>
<path d="M118.422 120.793C98.9805 120.793 89.7002 133.194 88.4967 148.883H148.341C147.138 133.194 140.14 120.365 118.416 120.793H118.422Z" fill="#CEC4F7"/>
<path d="M129.948 98.1447C129.948 98.1447 130.476 101.997 130.736 106.377C130.997 110.756 130.922 115.663 130.922 115.663" stroke="#16151C" stroke-opacity="0.1" stroke-width="1.24069" stroke-linecap="round" stroke-linejoin="round"/>
<path d="M122.374 68.0827C122.374 68.0827 123.881 70.3346 124.793 73.0765C125.705 75.8184 126.332 78.976 126.332 78.976" stroke="#16151C" stroke-opacity="0.1" stroke-width="1.24069" stroke-linecap="round" stroke-linejoin="round"/>
<path d="M111.685 78.9699C111.685 77.723 112.697 76.7056 113.95 76.7056C115.203 76.7056 116.214 77.7168 116.214 78.9699C116.214 80.2229 115.203 81.2341 113.95 81.2341C112.697 81.2341 111.685 80.2229 111.685 78.9699Z" fill="#16151C" fill-opacity="0.1"/>
<path d="M104.948 126.271C104.948 126.271 101.233 131.345 98.956 137.338C96.6917 143.299 96.5056 148.256 96.5056 148.256" stroke="white" stroke-width="1.24069" stroke-linecap="round" stroke-linejoin="round" stroke-dasharray="2.48 3.72"/>
<path d="M121.66 88.5603C121.66 85.0554 124.501 82.208 128.013 82.208C131.524 82.208 134.365 85.0492 134.365 88.5603C134.365 92.0715 131.524 94.9126 128.013 94.9126C124.501 94.9126 121.66 92.0715 121.66 88.5603Z" fill="white"/>
<path d="M118.422 88.5603C118.422 83.2626 122.715 78.9698 128.013 78.9698C133.31 78.9698 137.603 83.2626 137.603 88.5603C137.603 93.8581 133.31 98.1508 128.013 98.1508C122.715 98.1508 118.422 93.8581 118.422 88.5603Z" stroke="white" stroke-width="1.24069" stroke-linecap="round" stroke-linejoin="round"/>
<path d="M102.175 78.0021C102.175 77.5306 102.56 77.146 103.031 77.146H106.871C107.343 77.146 107.727 77.5306 107.727 78.0021V80.3718C107.727 80.8433 107.343 81.2279 106.871 81.2279H103.031C102.56 81.2279 102.175 80.8433 102.175 80.3718V78.0021Z" fill="white"/>
<path d="M102.175 84.28C102.175 83.8085 102.56 83.4239 103.031 83.4239H106.871C107.343 83.4239 107.727 83.8085 107.727 84.28V86.6497C107.727 87.1211 107.343 87.5057 106.871 87.5057H103.031C102.56 87.5057 102.175 87.1211 102.175 86.6497V84.28Z" fill="white"/>
<path d="M118.869 28.784C106.003 28.784 99.8615 43.0084 99.0613 61.0108H138.67C137.876 43.0084 133.242 28.2939 118.863 28.784H118.869Z" fill="#CEC4F7"/>
<path d="M117.678 39.8199C116.282 39.8199 115.153 40.9551 115.153 42.3447V47.4377C115.153 48.8335 116.288 49.9625 117.678 49.9625H137.523C136.878 46.1908 135.935 42.7851 134.65 39.8199H117.678Z" fill="#16151C" fill-opacity="0.1"/>
<path d="M120.978 44.8881C120.978 44.1499 121.58 43.5482 122.318 43.5482C123.056 43.5482 123.658 44.1499 123.658 44.8881C123.658 45.6263 123.056 46.2281 122.318 46.2281C121.58 46.2281 120.978 45.6263 120.978 44.8881Z" fill="white"/>
<path d="M130.941 44.8881C130.941 44.1499 131.543 43.5482 132.281 43.5482C133.019 43.5482 133.621 44.1499 133.621 44.8881C133.621 45.6263 133.019 46.2281 132.281 46.2281C131.543 46.2281 130.941 45.6263 130.941 44.8881Z" fill="white"/>
<path d="M124.781 52.5059C124.781 52.5059 125.382 54.3359 127.002 54.4352C128.521 54.522 129.303 52.8905 129.303 52.8905" stroke="#16151C" stroke-opacity="0.1" stroke-width="1.24069" stroke-linecap="round" stroke-linejoin="round"/>
<path d="M96.3876 42.3013C96.3876 39.9936 98.261 38.1202 100.569 38.1202H101.437C103.745 38.1202 105.618 39.9936 105.618 42.3013V52.0035C105.618 54.3111 103.745 56.1846 101.437 56.1846H100.569C98.261 56.1846 96.3876 54.3111 96.3876 52.0035V42.3013Z" fill="#16151C" fill-opacity="0.1"/>
<path d="M102.231 40.279C102.231 40.279 103.869 40.5457 103.819 46.9601C103.77 53.3744 102.182 54.032 102.182 54.032" stroke="white" stroke-width="1.24069" stroke-linecap="round" stroke-linejoin="round"/>
<path d="M209.346 66.8048C209.346 66.8048 207.832 57.5989 212.559 53.6846C217.286 49.7702 224.985 52.4563 224.985 52.4563C224.985 52.4563 226.412 48.9451 227.199 46.0047C227.993 43.0581 228.725 40.3224 230.45 40.2851C232.175 40.2479 233.403 46.2218 232.243 49.4724C231.083 52.723 230.239 54.6213 230.239 54.6213C230.239 54.6213 231.939 51.0481 232.466 49.1871C234.147 43.3124 233.304 42.3819 234.551 39.9564C235.63 37.8534 238.018 38.5544 238.893 42.7355C239.507 45.6883 239.184 48.2566 237.64 51.9786C236.374 55.0369 235.593 57.0592 235.593 57.0592C235.593 57.0592 238.769 56.2466 241.151 52.4811C242.9 49.7144 242.727 45.7318 244.346 45.8558C245.965 45.9737 247.708 49.0072 245.797 54.398C243.887 59.7888 240.89 63.0518 236.684 64.4786C232.485 65.8991 225.655 66.4885 221.337 71.7056" stroke="#16151C" stroke-opacity="0.1" stroke-width="1.24069" stroke-linecap="round" stroke-linejoin="round"/>
<path d="M200.035 58.2689C200.711 57.357 202.001 57.1647 202.913 57.8409L227.479 76.0852C228.391 76.7614 228.583 78.0517 227.907 78.9636L222.013 86.8978C221.337 87.8097 220.047 88.002 219.129 87.3258L194.563 69.0815C193.651 68.4053 193.459 67.115 194.135 66.2031L200.028 58.2689H200.035Z" fill="#16151C" fill-opacity="0.1"/>
<path d="M64.1048 103.114L41.9585 104.106" stroke="#16151C" stroke-opacity="0.1" stroke-width="1.24069" stroke-linecap="round" stroke-linejoin="round"/>
<path d="M66.9769 101.191L53.838 85.4586" stroke="#16151C" stroke-opacity="0.1" stroke-width="1.24069" stroke-linecap="round" stroke-linejoin="round"/>
<path d="M76.3815 95.5392L68.1558 77.3817" stroke="#16151C" stroke-opacity="0.1" stroke-width="1.24069" stroke-linecap="round" stroke-linejoin="round"/>
<path d="M76.2885 118.529L60.6744 138.703" stroke="#16151C" stroke-opacity="0.1" stroke-width="1.24069" stroke-linecap="round" stroke-linejoin="round"/>
<path d="M66.9773 106.91L47.1946 120.818" stroke="#16151C" stroke-opacity="0.1" stroke-width="1.24069" stroke-linecap="round" stroke-linejoin="round"/>
<path d="M72.4359 112.555L53.838 130.719" stroke="#16151C" stroke-opacity="0.1" stroke-width="1.24069" stroke-linecap="round" stroke-linejoin="round"/>
<path d="M83.7947 91.5069L63.5653 103.107L80.5752 121.991L65.8172 144.447C65.8172 144.447 38.3235 112.667 37.2566 104.354C35.1164 87.636 83.7885 72.146 83.7885 72.146V91.5007L83.7947 91.5069Z" stroke="#16151C" stroke-opacity="0.1" stroke-width="1.24069" stroke-linecap="round" stroke-linejoin="round"/>
<path d="M41.27 92.5988C45.0975 92.3754 48.5032 97.4622 48.8816 103.957C49.26 110.458 46.4685 115.905 42.641 116.128C38.8134 116.352 35.4078 111.265 35.0293 104.764C34.6509 98.2625 37.4425 92.8159 41.27 92.5925V92.5988Z" fill="#16151C" fill-opacity="0.1"/>
<path d="M80.8604 126.271C80.8604 126.271 87.5725 127.443 90.9285 132.127C93.2238 135.328 94.7809 138.008 93.8007 144.422C92.8268 150.837 85.1966 156.066 82.8517 155.985C81.4683 155.936 79.9733 155.278 80.3331 154.701C80.7549 154.025 81.338 153.696 82.9633 152.077C84.9174 150.129 86.3752 147.797 86.369 147.791C86.369 147.785 85.2028 149.857 82.8703 152.152C80.7611 154.224 79.9236 155.601 77.3244 155.409C74.8182 155.229 74.2165 153.591 74.2165 153.591C74.2165 153.591 77.4609 151.277 79.3901 149.391C81.3566 147.468 82.3988 144.962 82.3988 144.962C82.3988 144.962 81.4683 147.754 79.0427 149.751C76.6172 151.755 74.812 153.622 73.9869 152.89C73.1557 152.152 73.3294 150.781 74.7065 147.536C76.0837 144.286 76.276 143.089 76.2698 141.693C76.2636 139.795 74.3902 136.854 74.3902 136.854" stroke="#16151C" stroke-opacity="0.1" stroke-width="1.24069" stroke-linecap="round" stroke-linejoin="round"/>
<path d="M87.4983 121.798C88.3481 122.555 88.4226 123.858 87.6658 124.708L67.3247 147.567C66.5679 148.417 65.2651 148.492 64.4153 147.735L57.0332 141.165C56.1833 140.409 56.1089 139.106 56.8657 138.256L77.2068 115.396C77.9636 114.547 79.2663 114.472 80.1162 115.229L87.4983 121.798Z" fill="#16151C" fill-opacity="0.1"/>
</g>
<defs>
<clipPath id="clip0_11_5420">
<rect width="260.848" height="265.247" fill="white" transform="translate(0.575806)"/>
</clipPath>
</defs>
</svg>
